<svg width="105" height="61" viewBox="0 0 105 61" fill="none" xmlns="http://www.w3.org/2000/svg">
<g clip-path="url(#clip0_117_120)">
<rect width="103.422" height="60.8202" transform="translate(0.789062 0.0899048)" fill="black"/>
<path d="M52.7739 19.2989C53.3581 19.1258 53.8738 18.8389 54.2964 18.4212C54.5281 19.5055 54.9567 20.2837 55.6558 20.6796C56.4261 21.1159 57.3275 20.9754 58.1712 20.6563C59.029 20.3318 59.9706 19.7681 60.9255 19.1453C61.3714 18.8545 61.8216 18.5503 62.2734 18.245C63.8064 17.2092 65.3588 16.1604 66.8291 15.5737C67.7688 15.1988 68.6022 15.0459 69.3183 15.1736C69.9707 15.29 70.5893 15.6503 71.1407 16.4324C71.079 20.075 69.0672 23.7113 65.755 26.4676C62.396 29.2627 57.7372 31.1166 52.5628 31.1166C47.3885 31.1166 42.735 29.2628 39.3812 26.4678C36.0406 23.684 34.0264 20.002 34.004 16.322C34.0769 16.0161 34.1973 15.812 34.3386 15.6706C34.4891 15.52 34.6972 15.4066 34.9862 15.3393C35.589 15.1988 36.4542 15.2785 37.5592 15.5472C39.0087 15.8998 40.6891 16.5255 42.4584 17.1842C43.3913 17.5316 44.3489 17.8881 45.3105 18.2187C46.6805 18.6897 48.0451 19.1014 49.3037 19.3266C50.5542 19.5502 51.7555 19.6005 52.7739 19.2989Z" fill="white" stroke="#FB1E26" stroke-width="1.1365"/>
<path d="M71.1827 16.1714C71.1827 16.6664 70.8368 17.2578 69.9181 17.894C69.0165 18.5184 67.6748 19.1035 65.9657 19.6041C62.555 20.6031 57.8095 21.2289 52.5441 21.2289C47.2786 21.2289 42.5332 20.6031 39.1225 19.6041C37.4134 19.1035 36.0716 18.5184 35.17 17.894C34.2513 17.2578 33.9054 16.6664 33.9054 16.1714C33.9054 15.6765 34.2513 15.0851 35.17 14.4488C36.0716 13.8245 37.4134 13.2394 39.1225 12.7388C42.5332 11.7398 47.2786 11.114 52.5441 11.114C57.8095 11.114 62.555 11.7398 65.9657 12.7388C67.6748 13.2394 69.0165 13.8245 69.9181 14.4488C70.8368 15.0851 71.1827 15.6765 71.1827 16.1714Z" fill="white" stroke="#FB1E26" stroke-width="1.1365"/>
<rect x="44.9661" y="14.0688" width="1.63222" height="4.25279" rx="0.816111" fill="#FB1E26"/>
<rect x="48.1953" y="13.0461" width="1.63222" height="6.25077" rx="0.816111" fill="#FB1E26"/>
<rect x="51.679" y="12.7051" width="1.63222" height="7.0571" rx="0.816111" fill="#FB1E26"/>
<rect x="51.7219" y="0.544403" width="1.63222" height="7.0571" rx="0.816111" fill="#FB1E26"/>
<rect x="54.9043" y="3.15866" width="1.5911" height="4.43236" rx="0.795552" fill="#FB1E26"/>
<rect x="48.54" y="3.15866" width="1.5911" height="4.43236" rx="0.795552" fill="#FB1E26"/>
<rect x="55.2419" y="13.0461" width="1.63222" height="6.25077" rx="0.816111" fill="#FB1E26"/>
<rect x="58.4866" y="13.9554" width="1.63222" height="4.46745" rx="0.816111" fill="#FB1E26"/>
<path d="M34.5226 19.4322C34.7248 20.3422 34.719 21.1793 34.5708 21.7876C34.413 22.4355 34.1517 22.6423 33.9989 22.6763C33.846 22.7102 33.5217 22.6335 33.1044 22.1134C32.7126 21.625 32.3529 20.8692 32.1507 19.9592C31.9485 19.0492 31.9544 18.2122 32.1025 17.6038C32.2604 16.9559 32.5216 16.7491 32.6745 16.7151C32.8274 16.6812 33.1516 16.7579 33.5689 17.278C33.9608 17.7664 34.3205 18.5223 34.5226 19.4322Z" fill="white" stroke="#FB1E26" stroke-width="1.1365"/>
<path d="M72.8492 19.9594C72.647 20.8694 72.2872 21.6252 71.8953 22.1136C71.478 22.6337 71.1537 22.7103 71.0008 22.6764C70.848 22.6424 70.5867 22.4356 70.429 21.7877C70.2808 21.1793 70.2751 20.3422 70.4773 19.4323C70.6795 18.5223 71.0393 17.7665 71.4312 17.2782C71.8485 16.7581 72.1728 16.6814 72.3256 16.7153C72.4785 16.7493 72.7398 16.9561 72.8975 17.6041C73.0456 18.2124 73.0514 19.0495 72.8492 19.9594Z" fill="white" stroke="#FB1E26" stroke-width="1.1365"/>
<rect x="47.2581" y="30.3208" width="1.3638" height="4.88697" rx="0.681902" transform="rotate(30.34 47.2581 30.3208)" fill="#FB1E26"/>
<rect x="57.405" y="31.0099" width="1.3638" height="4.88697" rx="0.681902" transform="rotate(-30.3415 57.405 31.0099)" fill="#FB1E26"/>
<rect x="47.0625" y="30.7757" width="11.4787" height="0.909203" fill="#FB1E26"/>
<path d="M7.1611 42.7972C7.06662 42.7972 6.96569 42.8123 6.85832 42.8423C6.75525 42.8724 6.65218 42.9304 6.5491 43.0163C6.44603 43.1022 6.3451 43.2224 6.24633 43.377C6.15184 43.5273 6.06809 43.727 5.99508 43.9761C5.92637 44.2252 5.87054 44.528 5.82759 44.8845C5.78464 45.2366 5.76317 45.6575 5.76317 46.1471C5.76317 46.6324 5.78464 47.0554 5.82759 47.4162C5.87054 47.777 5.92637 48.0862 5.99508 48.3439C6.06809 48.6015 6.15184 48.8141 6.24633 48.9816C6.3451 49.1448 6.44603 49.2737 6.5491 49.3681C6.65218 49.4626 6.75525 49.5292 6.85832 49.5678C6.96569 49.6022 7.06662 49.6194 7.1611 49.6194C7.28994 49.6194 7.41019 49.5915 7.52185 49.5356V47.0683C7.52185 46.9996 7.53689 46.933 7.56695 46.8686C7.59701 46.7999 7.66788 46.7655 7.77954 46.7655H8.45595C8.49461 46.7655 8.53326 46.7677 8.57191 46.772C8.61056 46.7763 8.64492 46.7892 8.67499 46.8106C8.70505 46.8278 8.72867 46.8579 8.74585 46.9008C8.76303 46.9395 8.77162 46.9953 8.77162 47.0683V50.7661C8.77162 50.8391 8.76303 50.8971 8.74585 50.94C8.72867 50.9787 8.70505 51.0087 8.67499 51.0302C8.64492 51.0474 8.61056 51.0581 8.57191 51.0624C8.53326 51.0667 8.49461 51.0688 8.45595 51.0688H7.77954C7.72371 51.0688 7.67861 51.0603 7.64425 51.0431C7.61419 51.0259 7.58842 51.0023 7.56695 50.9722C7.54977 50.9422 7.53689 50.9099 7.5283 50.8756C7.524 50.8369 7.52185 50.8004 7.52185 50.7661V50.5793C7.38442 50.678 7.23196 50.7725 7.06447 50.8627C6.89697 50.9529 6.7123 51.0323 6.51045 51.1011C6.31289 51.1698 6.09816 51.2235 5.86624 51.2621C5.63433 51.3008 5.38524 51.3201 5.11896 51.3201C4.80545 51.3201 4.48335 51.2922 4.15265 51.2363C3.82196 51.1805 3.49986 51.0817 3.18634 50.94C2.87712 50.794 2.58294 50.5964 2.30378 50.3473C2.02462 50.0982 1.77982 49.7826 1.56938 49.4004C1.36324 49.0181 1.19789 48.5607 1.07334 48.0282C0.953092 47.4914 0.892966 46.8643 0.892966 46.1471C0.892966 45.5373 0.953092 45.0004 1.07334 44.5366C1.19789 44.0685 1.36538 43.6626 1.57583 43.319C1.78627 42.9755 2.03106 42.6877 2.31022 42.4558C2.59367 42.2239 2.8943 42.0392 3.21211 41.9018C3.52992 41.7601 3.85632 41.6613 4.19131 41.6054C4.53059 41.5453 4.86128 41.5153 5.18338 41.5153C5.53555 41.5153 5.87054 41.5432 6.18835 41.599C6.50616 41.6548 6.79605 41.7257 7.05803 41.8116C7.3243 41.8975 7.56051 41.9941 7.76665 42.1015C7.9728 42.2089 8.14244 42.3141 8.27558 42.4171C8.28846 42.43 8.30349 42.4451 8.32067 42.4622C8.33785 42.4751 8.34644 42.4923 8.34644 42.5138C8.34644 42.531 8.34 42.5524 8.32711 42.5782L8.0501 43.0163C8.02434 43.0549 7.99427 43.0742 7.95992 43.0742C7.93415 43.0742 7.89764 43.0614 7.8504 43.0356C7.80745 43.0055 7.75162 42.9733 7.68291 42.939C7.61419 42.9003 7.53689 42.8681 7.45099 42.8423C7.3651 42.8123 7.26847 42.7972 7.1611 42.7972ZM4.67446 46.1471C4.67446 46.641 4.69808 47.0748 4.74532 47.4484C4.79686 47.8178 4.86558 48.1399 4.95147 48.4147C5.04166 48.6853 5.14473 48.9129 5.26069 49.0976C5.38094 49.278 5.50763 49.4283 5.64077 49.5485C5.7782 49.6645 5.91778 49.7547 6.05951 49.8191C6.20553 49.8835 6.3494 49.9329 6.49112 49.9673C6.44388 49.9415 6.37946 49.9007 6.29786 49.8449C6.21626 49.7847 6.12607 49.6988 6.02729 49.5872C5.93281 49.4755 5.83618 49.3295 5.7374 49.1491C5.64292 48.9687 5.55488 48.7433 5.47328 48.4727C5.39597 48.1978 5.33155 47.8714 5.28001 47.4935C5.23277 47.1113 5.20915 46.6625 5.20915 46.1471C5.20915 45.636 5.23277 45.1937 5.28001 44.82C5.33155 44.4421 5.39597 44.1222 5.47328 43.8602C5.55488 43.5939 5.64292 43.377 5.7374 43.2095C5.83618 43.042 5.93281 42.9067 6.02729 42.8037C6.12607 42.7006 6.21626 42.6254 6.29786 42.5782C6.37946 42.5267 6.44388 42.4859 6.49112 42.4558C6.3494 42.4902 6.20553 42.5374 6.05951 42.5975C5.91778 42.6534 5.7782 42.7371 5.64077 42.8488C5.50763 42.9561 5.38094 43.0957 5.26069 43.2675C5.14473 43.4393 5.04166 43.6562 4.95147 43.9182C4.86558 44.1801 4.79686 44.4936 4.74532 44.8587C4.69808 45.2237 4.67446 45.6532 4.67446 46.1471ZM9.82812 45.3676C9.82812 45.2216 9.841 45.0928 9.86677 44.9811C9.89254 44.8651 9.94193 44.7707 10.0149 44.6976C10.0879 44.6246 10.1889 44.5688 10.3177 44.5301C10.4466 44.4915 10.614 44.4722 10.8202 44.4722H13.6418C13.8394 44.4722 13.9983 44.4915 14.1185 44.5301C14.2388 44.5688 14.3333 44.6268 14.402 44.7041C14.4707 44.7814 14.5158 44.878 14.5373 44.994C14.563 45.1099 14.5759 45.2452 14.5759 45.3998V45.8765L16.0061 44.4851C16.1005 44.3949 16.1886 44.3498 16.2702 44.3498C16.3174 44.3498 16.3582 44.3605 16.3926 44.382C16.4312 44.3992 16.4634 44.4206 16.4892 44.4464L16.7791 44.7492C16.8435 44.8136 16.8757 44.8845 16.8757 44.9618C16.8757 45.009 16.8607 45.0584 16.8306 45.1099C16.8049 45.1572 16.7619 45.2044 16.7018 45.2517L14.5759 46.9008V50.1605C14.5759 50.3108 14.5652 50.444 14.5437 50.5599C14.5222 50.6716 14.475 50.7661 14.402 50.8434C14.329 50.9164 14.2238 50.9722 14.0863 51.0109C13.9489 51.0495 13.7621 51.0688 13.5259 51.0688H10.8202C10.614 51.0688 10.4466 51.0495 10.3177 51.0109C10.1889 50.9722 10.0879 50.9164 10.0149 50.8434C9.94193 50.7704 9.89254 50.678 9.86677 50.5664C9.841 50.4547 9.82812 50.3237 9.82812 50.1734V45.3676ZM14.0283 45.4256C14.0283 45.3311 14.0219 45.256 14.009 45.2001C13.9961 45.1443 13.9704 45.1035 13.9317 45.0777C13.8931 45.0477 13.8415 45.0305 13.7771 45.0262C13.7127 45.0176 13.6289 45.0133 13.5259 45.0133V50.5277C13.6289 50.5277 13.7127 50.5256 13.7771 50.5213C13.8415 50.5127 13.8931 50.4955 13.9317 50.4697C13.9704 50.4397 13.9961 50.3989 14.009 50.3473C14.0219 50.2915 14.0283 50.2142 14.0283 50.1154V45.4256ZM16.9917 45.3676C16.9917 45.2216 17.0046 45.0928 17.0303 44.9811C17.0561 44.8651 17.1055 44.7707 17.1785 44.6976C17.2515 44.6246 17.3525 44.5688 17.4813 44.5301C17.6101 44.4915 17.7776 44.4722 17.9838 44.4722H20.8054C21.003 44.4722 21.1619 44.4915 21.2821 44.5301C21.4067 44.5645 21.5033 44.6182 21.572 44.6912C21.6407 44.7642 21.6858 44.8565 21.7073 44.9682C21.7288 45.0799 21.7395 45.213 21.7395 45.3676V50.1863C21.7395 50.3323 21.7288 50.4611 21.7073 50.5728C21.6858 50.6802 21.6407 50.7725 21.572 50.8498C21.5033 50.9228 21.4067 50.9787 21.2821 51.0173C21.1619 51.0517 21.003 51.0688 20.8054 51.0688H17.9838C17.7776 51.0688 17.6101 51.0495 17.4813 51.0109C17.3525 50.9722 17.2515 50.9164 17.1785 50.8434C17.1055 50.7704 17.0561 50.678 17.0303 50.5664C17.0046 50.4547 16.9917 50.3237 16.9917 50.1734V45.3676ZM17.2301 41.715C17.2301 41.4186 17.2859 41.1395 17.3975 40.8775C17.5135 40.6155 17.6681 40.3879 17.8614 40.1946C18.0546 40.0014 18.2823 39.8489 18.5442 39.7372C18.8062 39.6213 19.0854 39.5633 19.3817 39.5633C19.6737 39.5633 19.9486 39.6213 20.2063 39.7372C20.4683 39.8489 20.6959 40.0014 20.8891 40.1946C21.0824 40.3879 21.2349 40.6155 21.3465 40.8775C21.4625 41.1395 21.5205 41.4186 21.5205 41.715C21.5205 42.007 21.4625 42.284 21.3465 42.546C21.2349 42.8037 21.0824 43.0291 20.8891 43.2224C20.6959 43.4157 20.4683 43.5703 20.2063 43.6862C19.9486 43.7979 19.6737 43.8537 19.3817 43.8537C19.0854 43.8537 18.8062 43.7979 18.5442 43.6862C18.2823 43.5703 18.0546 43.4157 17.8614 43.2224C17.6681 43.0291 17.5135 42.8037 17.3975 42.546C17.2859 42.284 17.2301 42.007 17.2301 41.715ZM21.1919 45.4256C21.1919 45.3311 21.1855 45.256 21.1726 45.2001C21.1597 45.1443 21.1339 45.1035 21.0953 45.0777C21.0566 45.0477 21.0051 45.0305 20.9407 45.0262C20.8763 45.0176 20.7925 45.0133 20.6894 45.0133V50.5277C20.7925 50.5277 20.8763 50.5256 20.9407 50.5213C21.0051 50.5127 21.0566 50.4955 21.0953 50.4697C21.1339 50.4397 21.1597 50.3989 21.1726 50.3473C21.1855 50.2915 21.1919 50.2142 21.1919 50.1154V45.4256ZM20.4446 41.715C20.4446 42.0156 20.3845 42.299 20.2643 42.5653C20.1483 42.8316 19.9894 43.0635 19.7876 43.2611C19.9593 43.2181 20.1161 43.1473 20.2578 43.0485C20.4038 42.9497 20.5284 42.8337 20.6315 42.7006C20.7388 42.5632 20.8226 42.4107 20.8827 42.2432C20.9428 42.0757 20.9729 41.8996 20.9729 41.715C20.9729 41.5303 20.9428 41.3542 20.8827 41.1867C20.8226 41.0192 20.7388 40.8689 20.6315 40.7358C20.5284 40.5983 20.4038 40.4824 20.2578 40.3879C20.1161 40.2891 19.9593 40.2161 19.7876 40.1689C19.9894 40.3664 20.1483 40.5983 20.2643 40.8646C20.3845 41.1309 20.4446 41.4143 20.4446 41.715ZM22.9313 45.3676C22.9313 45.2216 22.9442 45.0928 22.9699 44.9811C22.9957 44.8651 23.0451 44.7707 23.1181 44.6976C23.1911 44.6246 23.292 44.5688 23.4209 44.5301C23.5497 44.4915 23.7172 44.4722 23.9234 44.4722H26.5582C26.7514 44.4722 26.9168 44.4915 27.0542 44.5301C27.1959 44.5688 27.2969 44.6354 27.357 44.7299C27.4128 44.6912 27.4794 44.6504 27.5567 44.6075C27.6383 44.5602 27.7263 44.5173 27.8208 44.4786C27.9153 44.44 28.0162 44.4077 28.1236 44.382C28.231 44.3562 28.3426 44.3433 28.4586 44.3433C28.8709 44.3433 29.1908 44.4851 29.4184 44.7685C29.6504 45.052 29.7663 45.4685 29.7663 46.0183V50.7661C29.7663 50.8391 29.7556 50.8971 29.7341 50.94C29.7169 50.9787 29.6933 51.0087 29.6632 51.0302C29.6375 51.0474 29.6053 51.0581 29.5666 51.0624C29.528 51.0667 29.4893 51.0688 29.4507 51.0688H29.0384C28.9267 51.0688 28.8537 51.0366 28.8193 50.9722C28.7893 50.9078 28.7742 50.8391 28.7742 50.7661V45.9538C28.7742 45.709 28.7291 45.5222 28.639 45.3934C28.5531 45.2645 28.4135 45.2001 28.2202 45.2001C28.1214 45.2001 28.0205 45.228 27.9174 45.2839C27.8187 45.3354 27.7392 45.3912 27.6791 45.4514V50.167C27.6791 50.3173 27.6662 50.4483 27.6404 50.5599C27.6147 50.6716 27.5653 50.7661 27.4923 50.8434C27.4193 50.9164 27.3183 50.9722 27.1895 51.0109C27.0606 51.0495 26.8932 51.0688 26.687 51.0688H23.9234C23.7172 51.0688 23.5497 51.0495 23.4209 51.0109C23.292 50.9722 23.1911 50.9164 23.1181 50.8434C23.0451 50.7704 22.9957 50.678 22.9699 50.5664C22.9442 50.4547 22.9313 50.3237 22.9313 50.1734V45.3676ZM27.1315 45.4256C27.1315 45.2753 27.0907 45.1701 27.0091 45.1099C26.9318 45.0455 26.8051 45.0133 26.629 45.0133V50.5277C26.7321 50.5277 26.8158 50.5256 26.8803 50.5213C26.9447 50.5127 26.9962 50.4955 27.0349 50.4697C27.0735 50.4397 27.0993 50.3989 27.1122 50.3473C27.1251 50.2915 27.1315 50.2142 27.1315 50.1154V45.4256ZM42.3026 41.818C42.3842 41.818 42.4572 41.8438 42.5216 41.8953C42.586 41.9469 42.6182 42.0457 42.6182 42.1917V50.5921C42.6182 50.9099 42.4679 51.0688 42.1673 51.0688H39.9319C39.7902 51.0688 39.6721 51.0409 39.5776 50.9851C39.4874 50.9293 39.4058 50.8648 39.3328 50.7918L36.0345 47.3453C36.0731 47.9036 36.1118 48.4169 36.1504 48.885C36.1633 49.0868 36.1783 49.2865 36.1955 49.4841C36.2127 49.6817 36.2277 49.8663 36.2406 50.0381C36.2535 50.2099 36.2642 50.3602 36.2728 50.4891C36.2857 50.6179 36.2943 50.7102 36.2986 50.7661C36.3072 50.8391 36.2943 50.9078 36.2599 50.9722C36.2299 51.0366 36.1569 51.0688 36.0409 51.0688H35.2292C35.1519 51.0688 35.0789 51.0452 35.0102 50.998C34.9457 50.9464 34.9135 50.8477 34.9135 50.7016V42.2948C34.9135 41.9769 35.0896 41.818 35.4418 41.818H37.6192C37.7824 41.818 37.9177 41.8524 38.0251 41.9211C38.1367 41.9898 38.2484 42.08 38.36 42.1917L41.4973 45.3032C41.4544 44.7921 41.4157 44.3197 41.3814 43.8859C41.3642 43.7013 41.347 43.5166 41.3298 43.3319C41.3169 43.1473 41.3041 42.9755 41.2912 42.8166C41.2783 42.6534 41.2654 42.5116 41.2525 42.3914C41.2439 42.2711 41.2375 42.1809 41.2332 42.1208C41.2246 42.0521 41.2375 41.9855 41.2719 41.9211C41.3105 41.8524 41.3964 41.818 41.5295 41.818H42.3026ZM37.9155 42.5331C37.8382 42.4558 37.7738 42.4086 37.7223 42.3914C37.675 42.3699 37.6085 42.3592 37.5226 42.3592H37.0652L41.4973 46.7655V46.0827L37.9155 42.5331ZM45.2531 41.7536C45.2788 41.7107 45.3132 41.6742 45.3561 41.6441C45.3991 41.614 45.4463 41.599 45.4978 41.599C45.5494 41.599 45.6009 41.6162 45.6525 41.6505L46.5737 42.2561C46.6209 42.2862 46.6617 42.3184 46.6961 42.3527C46.7304 42.3871 46.7476 42.4322 46.7476 42.488C46.7476 42.5438 46.7197 42.6126 46.6639 42.6942L44.8214 45.1872C44.7441 45.2903 44.6711 45.3418 44.6024 45.3418C44.568 45.3418 44.5315 45.3333 44.4929 45.3161C44.4542 45.2989 44.4177 45.2774 44.3834 45.2517L43.7392 44.8265C43.6533 44.7707 43.6103 44.7062 43.6103 44.6332C43.6103 44.5989 43.6168 44.5667 43.6296 44.5366C43.6468 44.5022 43.6662 44.4679 43.6876 44.4335L45.2531 41.7536ZM57.77 42.7972C57.6755 42.7972 57.5746 42.8123 57.4672 42.8423C57.3641 42.8724 57.2611 42.9304 57.158 43.0163C57.0549 43.1022 56.954 43.2224 56.8552 43.377C56.7607 43.5273 56.677 43.727 56.604 43.9761C56.5353 44.2252 56.4794 44.528 56.4365 44.8845C56.3935 45.2366 56.3721 45.6575 56.3721 46.1471C56.3721 46.6324 56.3935 47.0554 56.4365 47.4162C56.4794 47.777 56.5353 48.0862 56.604 48.3439C56.677 48.6015 56.7607 48.8141 56.8552 48.9816C56.954 49.1448 57.0549 49.2737 57.158 49.3681C57.2611 49.4626 57.3641 49.5292 57.4672 49.5678C57.5746 49.6022 57.6755 49.6194 57.77 49.6194C57.8988 49.6194 58.0191 49.5915 58.1307 49.5356V47.0683C58.1307 46.9996 58.1458 46.933 58.1758 46.8686C58.2059 46.7999 58.2768 46.7655 58.3884 46.7655H59.0648C59.1035 46.7655 59.1422 46.7677 59.1808 46.772C59.2195 46.7763 59.2538 46.7892 59.2839 46.8106C59.3139 46.8278 59.3376 46.8579 59.3547 46.9008C59.3719 46.9395 59.3805 46.9953 59.3805 47.0683V50.7661C59.3805 50.8391 59.3719 50.8971 59.3547 50.94C59.3376 50.9787 59.3139 51.0087 59.2839 51.0302C59.2538 51.0474 59.2195 51.0581 59.1808 51.0624C59.1422 51.0667 59.1035 51.0688 59.0648 51.0688H58.3884C58.3326 51.0688 58.2875 51.0603 58.2531 51.0431C58.2231 51.0259 58.1973 51.0023 58.1758 50.9722C58.1587 50.9422 58.1458 50.9099 58.1372 50.8756C58.1329 50.8369 58.1307 50.8004 58.1307 50.7661V50.5793C57.9933 50.678 57.8409 50.7725 57.6734 50.8627C57.5059 50.9529 57.3212 51.0323 57.1193 51.1011C56.9218 51.1698 56.707 51.2235 56.4751 51.2621C56.2432 51.3008 55.9941 51.3201 55.7279 51.3201C55.4143 51.3201 55.0922 51.2922 54.7615 51.2363C54.4309 51.1805 54.1087 51.0817 53.7952 50.94C53.486 50.794 53.1918 50.5964 52.9127 50.3473C52.6335 50.0982 52.3887 49.7826 52.1783 49.4004C51.9721 49.0181 51.8068 48.5607 51.6822 48.0282C51.562 47.4914 51.5019 46.8643 51.5019 46.1471C51.5019 45.5373 51.562 45.0004 51.6822 44.5366C51.8068 44.0685 51.9743 43.6626 52.1847 43.319C52.3952 42.9755 52.64 42.6877 52.9191 42.4558C53.2026 42.2239 53.5032 42.0392 53.821 41.9018C54.1388 41.7601 54.4652 41.6613 54.8002 41.6054C55.1395 41.5453 55.4702 41.5153 55.7923 41.5153C56.1444 41.5153 56.4794 41.5432 56.7972 41.599C57.115 41.6548 57.4049 41.7257 57.6669 41.8116C57.9332 41.8975 58.1694 41.9941 58.3755 42.1015C58.5817 42.2089 58.7513 42.3141 58.8845 42.4171C58.8974 42.43 58.9124 42.4451 58.9296 42.4622C58.9467 42.4751 58.9553 42.4923 58.9553 42.5138C58.9553 42.531 58.9489 42.5524 58.936 42.5782L58.659 43.0163C58.6332 43.0549 58.6032 43.0742 58.5688 43.0742C58.543 43.0742 58.5065 43.0614 58.4593 43.0356C58.4163 43.0055 58.3605 42.9733 58.2918 42.939C58.2231 42.9003 58.1458 42.8681 58.0599 42.8423C57.974 42.8123 57.8774 42.7972 57.77 42.7972ZM55.2834 46.1471C55.2834 46.641 55.307 47.0748 55.3542 47.4484C55.4058 47.8178 55.4745 48.1399 55.5604 48.4147C55.6505 48.6853 55.7536 48.9129 55.8696 49.0976C55.9898 49.278 56.1165 49.4283 56.2497 49.5485C56.3871 49.6645 56.5267 49.7547 56.6684 49.8191C56.8144 49.8835 56.9583 49.9329 57.1 49.9673C57.0528 49.9415 56.9884 49.9007 56.9068 49.8449C56.8252 49.7847 56.735 49.6988 56.6362 49.5872C56.5417 49.4755 56.4451 49.3295 56.3463 49.1491C56.2518 48.9687 56.1638 48.7433 56.0822 48.4727C56.0049 48.1978 55.9404 47.8714 55.8889 47.4935C55.8417 47.1113 55.818 46.6625 55.818 46.1471C55.818 45.636 55.8417 45.1937 55.8889 44.82C55.9404 44.4421 56.0049 44.1222 56.0822 43.8602C56.1638 43.5939 56.2518 43.377 56.3463 43.2095C56.4451 43.042 56.5417 42.9067 56.6362 42.8037C56.735 42.7006 56.8252 42.6254 56.9068 42.5782C56.9884 42.5267 57.0528 42.4859 57.1 42.4558C56.9583 42.4902 56.8144 42.5374 56.6684 42.5975C56.5267 42.6534 56.3871 42.7371 56.2497 42.8488C56.1165 42.9561 55.9898 43.0957 55.8696 43.2675C55.7536 43.4393 55.6505 43.6562 55.5604 43.9182C55.4745 44.1801 55.4058 44.4936 55.3542 44.8587C55.307 45.2237 55.2834 45.6532 55.2834 46.1471ZM60.437 45.3676C60.437 45.2216 60.4499 45.0928 60.4757 44.9811C60.5014 44.8651 60.5508 44.7707 60.6238 44.6976C60.6968 44.6246 60.7978 44.5688 60.9266 44.5301C61.0554 44.4915 61.2229 44.4722 61.4291 44.4722H64.2507C64.4483 44.4722 64.6072 44.4915 64.7274 44.5301C64.8477 44.5688 64.9422 44.6268 65.0109 44.7041C65.0796 44.7814 65.1247 44.878 65.1462 44.994C65.1719 45.1099 65.1848 45.2452 65.1848 45.3998V45.8765L66.615 44.4851C66.7094 44.3949 66.7975 44.3498 66.8791 44.3498C66.9263 44.3498 66.9671 44.3605 67.0015 44.382C67.0401 44.3992 67.0723 44.4206 67.0981 44.4464L67.388 44.7492C67.4524 44.8136 67.4846 44.8845 67.4846 44.9618C67.4846 45.009 67.4696 45.0584 67.4395 45.1099C67.4138 45.1572 67.3708 45.2044 67.3107 45.2517L65.1848 46.9008V50.1605C65.1848 50.3108 65.1741 50.444 65.1526 50.5599C65.1311 50.6716 65.0839 50.7661 65.0109 50.8434C64.9379 50.9164 64.8326 50.9722 64.6952 51.0109C64.5578 51.0495 64.371 51.0688 64.1348 51.0688H61.4291C61.2229 51.0688 61.0554 51.0495 60.9266 51.0109C60.7978 50.9722 60.6968 50.9164 60.6238 50.8434C60.5508 50.7704 60.5014 50.678 60.4757 50.5664C60.4499 50.4547 60.437 50.3237 60.437 50.1734V45.3676ZM64.6372 45.4256C64.6372 45.3311 64.6308 45.256 64.6179 45.2001C64.605 45.1443 64.5793 45.1035 64.5406 45.0777C64.502 45.0477 64.4504 45.0305 64.386 45.0262C64.3216 45.0176 64.2378 45.0133 64.1348 45.0133V50.5277C64.2378 50.5277 64.3216 50.5256 64.386 50.5213C64.4504 50.5127 64.502 50.4955 64.5406 50.4697C64.5793 50.4397 64.605 50.3989 64.6179 50.3473C64.6308 50.2915 64.6372 50.2142 64.6372 50.1154V45.4256ZM67.6006 45.3676C67.6006 45.2216 67.6135 45.0928 67.6392 44.9811C67.665 44.8651 67.7144 44.7707 67.7874 44.6976C67.8604 44.6246 67.9613 44.5688 68.0902 44.5301C68.219 44.4915 68.3865 44.4722 68.5927 44.4722H71.4143C71.6119 44.4722 71.7708 44.4915 71.891 44.5301C72.0156 44.5645 72.1122 44.6182 72.1809 44.6912C72.2496 44.7642 72.2947 44.8565 72.3162 44.9682C72.3377 45.0799 72.3484 45.213 72.3484 45.3676V50.1863C72.3484 50.3323 72.3377 50.4611 72.3162 50.5728C72.2947 50.6802 72.2496 50.7725 72.1809 50.8498C72.1122 50.9228 72.0156 50.9787 71.891 51.0173C71.7708 51.0517 71.6119 51.0688 71.4143 51.0688H68.5927C68.3865 51.0688 68.219 51.0495 68.0902 51.0109C67.9613 50.9722 67.8604 50.9164 67.7874 50.8434C67.7144 50.7704 67.665 50.678 67.6392 50.5664C67.6135 50.4547 67.6006 50.3237 67.6006 50.1734V45.3676ZM67.8389 41.715C67.8389 41.4186 67.8948 41.1395 68.0064 40.8775C68.1224 40.6155 68.277 40.3879 68.4703 40.1946C68.6635 40.0014 68.8912 39.8489 69.1531 39.7372C69.4151 39.6213 69.6943 39.5633 69.9906 39.5633C70.2826 39.5633 70.5575 39.6213 70.8152 39.7372C71.0772 39.8489 71.3048 40.0014 71.498 40.1946C71.6913 40.3879 71.8438 40.6155 71.9554 40.8775C72.0714 41.1395 72.1294 41.4186 72.1294 41.715C72.1294 42.007 72.0714 42.284 71.9554 42.546C71.8438 42.8037 71.6913 43.0291 71.498 43.2224C71.3048 43.4157 71.0772 43.5703 70.8152 43.6862C70.5575 43.7979 70.2826 43.8537 69.9906 43.8537C69.6943 43.8537 69.4151 43.7979 69.1531 43.6862C68.8912 43.5703 68.6635 43.4157 68.4703 43.2224C68.277 43.0291 68.1224 42.8037 68.0064 42.546C67.8948 42.284 67.8389 42.007 67.8389 41.715ZM71.8008 45.4256C71.8008 45.3311 71.7944 45.256 71.7815 45.2001C71.7686 45.1443 71.7428 45.1035 71.7042 45.0777C71.6655 45.0477 71.614 45.0305 71.5496 45.0262C71.4852 45.0176 71.4014 45.0133 71.2983 45.0133V50.5277C71.4014 50.5277 71.4852 50.5256 71.5496 50.5213C71.614 50.5127 71.6655 50.4955 71.7042 50.4697C71.7428 50.4397 71.7686 50.3989 71.7815 50.3473C71.7944 50.2915 71.8008 50.2142 71.8008 50.1154V45.4256ZM71.0535 41.715C71.0535 42.0156 70.9934 42.299 70.8732 42.5653C70.7572 42.8316 70.5983 43.0635 70.3964 43.2611C70.5682 43.2181 70.725 43.1473 70.8667 43.0485C71.0127 42.9497 71.1373 42.8337 71.2404 42.7006C71.3477 42.5632 71.4315 42.4107 71.4916 42.2432C71.5517 42.0757 71.5818 41.8996 71.5818 41.715C71.5818 41.5303 71.5517 41.3542 71.4916 41.1867C71.4315 41.0192 71.3477 40.8689 71.2404 40.7358C71.1373 40.5983 71.0127 40.4824 70.8667 40.3879C70.725 40.2891 70.5682 40.2161 70.3964 40.1689C70.5983 40.3664 70.7572 40.5983 70.8732 40.8646C70.9934 41.1309 71.0535 41.4143 71.0535 41.715ZM80.8519 50.1734C80.8519 50.3237 80.839 50.4547 80.8133 50.5664C80.7875 50.678 80.7381 50.7704 80.6651 50.8434C80.5921 50.9164 80.4912 50.9722 80.3623 51.0109C80.2335 51.0495 80.066 51.0688 79.8598 51.0688H77.0447C76.7311 51.0603 76.4198 51.0323 76.1106 50.9851C75.8056 50.9336 75.5136 50.8563 75.2344 50.7532C74.9596 50.6458 74.7019 50.5084 74.4614 50.3409C74.2252 50.1691 74.019 49.963 73.8429 49.7225C73.6712 49.4777 73.5359 49.1921 73.4371 48.8657C73.3383 48.535 73.2889 48.157 73.2889 47.7319C73.2889 47.2036 73.3641 46.7505 73.5144 46.3726C73.6647 45.9904 73.8687 45.6704 74.1264 45.4127C74.3841 45.155 74.6826 44.951 75.0218 44.8007C75.3654 44.6504 75.7262 44.5409 76.1041 44.4722V41.4186C76.1041 41.2683 76.1149 41.1373 76.1363 41.0257C76.1578 40.9097 76.2029 40.8152 76.2716 40.7422C76.3403 40.6649 76.4348 40.6091 76.5551 40.5747C76.6753 40.5361 76.8364 40.5167 77.0382 40.5167H79.8598C80.066 40.5167 80.2335 40.5361 80.3623 40.5747C80.4912 40.6134 80.5921 40.6692 80.6651 40.7422C80.7381 40.8152 80.7875 40.9097 80.8133 41.0257C80.839 41.1373 80.8519 41.2662 80.8519 41.4122V50.1734ZM74.2037 47.7383C74.2037 48.0561 74.2402 48.3546 74.3132 48.6337C74.3862 48.9086 74.4979 49.1534 74.6482 49.3681C74.8028 49.5786 75.0004 49.7525 75.2409 49.8899C75.4814 50.0274 75.7691 50.1154 76.1041 50.1541V45.2968C75.7691 45.3354 75.4814 45.4256 75.2409 45.5673C75.0004 45.7048 74.8028 45.8808 74.6482 46.0956C74.4979 46.3103 74.3862 46.5573 74.3132 46.8364C74.2402 47.1156 74.2037 47.4162 74.2037 47.7383ZM80.3043 41.4702C80.3043 41.3757 80.2979 41.3005 80.285 41.2447C80.2721 41.1889 80.2464 41.1481 80.2077 41.1223C80.1691 41.0922 80.1175 41.0751 80.0531 41.0708C79.9887 41.0622 79.9049 41.0579 79.8019 41.0579V50.5277C79.9049 50.5277 79.9887 50.5256 80.0531 50.5213C80.1175 50.5127 80.1691 50.4955 80.2077 50.4697C80.2464 50.4397 80.2721 50.3989 80.285 50.3473C80.2979 50.2915 80.3043 50.2142 80.3043 50.1154V41.4702ZM89.3555 50.1734C89.3555 50.3237 89.3426 50.4547 89.3168 50.5664C89.291 50.678 89.2416 50.7704 89.1686 50.8434C89.0956 50.9164 88.9947 50.9722 88.8659 51.0109C88.737 51.0495 88.5695 51.0688 88.3634 51.0688H85.5482C85.2347 51.0603 84.9233 51.0323 84.6141 50.9851C84.3092 50.9336 84.0171 50.8563 83.738 50.7532C83.4631 50.6458 83.2054 50.5084 82.9649 50.3409C82.7287 50.1691 82.5226 49.963 82.3465 49.7225C82.1747 49.4777 82.0394 49.1921 81.9406 48.8657C81.8419 48.535 81.7925 48.157 81.7925 47.7319C81.7925 47.2036 81.8676 46.7505 82.0179 46.3726C82.1683 45.9904 82.3723 45.6704 82.6299 45.4127C82.8876 45.155 83.1861 44.951 83.5254 44.8007C83.869 44.6504 84.2297 44.5409 84.6076 44.4722V41.4186C84.6076 41.2683 84.6184 41.1373 84.6399 41.0257C84.6613 40.9097 84.7064 40.8152 84.7751 40.7422C84.8439 40.6649 84.9383 40.6091 85.0586 40.5747C85.1788 40.5361 85.3399 40.5167 85.5417 40.5167H88.3634C88.5695 40.5167 88.737 40.5361 88.8659 40.5747C88.9947 40.6134 89.0956 40.6692 89.1686 40.7422C89.2416 40.8152 89.291 40.9097 89.3168 41.0257C89.3426 41.1373 89.3555 41.2662 89.3555 41.4122V50.1734ZM82.7072 47.7383C82.7072 48.0561 82.7437 48.3546 82.8168 48.6337C82.8898 48.9086 83.0014 49.1534 83.1517 49.3681C83.3064 49.5786 83.5039 49.7525 83.7444 49.8899C83.9849 50.0274 84.2727 50.1154 84.6076 50.1541V45.2968C84.2727 45.3354 83.9849 45.4256 83.7444 45.5673C83.5039 45.7048 83.3064 45.8808 83.1517 46.0956C83.0014 46.3103 82.8898 46.5573 82.8168 46.8364C82.7437 47.1156 82.7072 47.4162 82.7072 47.7383ZM88.8079 41.4702C88.8079 41.3757 88.8014 41.3005 88.7886 41.2447C88.7757 41.1889 88.7499 41.1481 88.7112 41.1223C88.6726 41.0922 88.6211 41.0751 88.5566 41.0708C88.4922 41.0622 88.4085 41.0579 88.3054 41.0579V50.5277C88.4085 50.5277 88.4922 50.5256 88.5566 50.5213C88.6211 50.5127 88.6726 50.4955 88.7112 50.4697C88.7499 50.4397 88.7757 50.3989 88.7886 50.3473C88.8014 50.2915 88.8079 50.2142 88.8079 50.1154V41.4702ZM90.5472 41.4122C90.5472 41.2662 90.5601 41.1373 90.5859 41.0257C90.6117 40.9097 90.661 40.8152 90.7341 40.7422C90.8071 40.6692 90.908 40.6134 91.0368 40.5747C91.1657 40.5361 91.3332 40.5167 91.5393 40.5167H94.3609C94.5585 40.5167 94.7174 40.5361 94.8377 40.5747C94.9579 40.6091 95.0524 40.6628 95.1211 40.7358C95.1898 40.8088 95.2349 40.9011 95.2564 41.0128C95.2822 41.1244 95.295 41.2554 95.295 41.4057V50.1863C95.295 50.3323 95.2822 50.4611 95.2564 50.5728C95.2306 50.6802 95.1834 50.7725 95.1147 50.8498C95.0459 50.9228 94.9493 50.9787 94.8248 51.0173C94.7045 51.0517 94.5456 51.0688 94.3481 51.0688H91.5393C91.3332 51.0688 91.1657 51.0495 91.0368 51.0109C90.908 50.9722 90.8071 50.9164 90.7341 50.8434C90.661 50.7704 90.6117 50.678 90.5859 50.5664C90.5601 50.4547 90.5472 50.3237 90.5472 50.1734V41.4122ZM94.7475 41.4702C94.7475 41.3757 94.741 41.3005 94.7281 41.2447C94.7153 41.1889 94.6895 41.1481 94.6508 41.1223C94.6122 41.0922 94.5606 41.0751 94.4962 41.0708C94.4318 41.0622 94.3481 41.0579 94.245 41.0579V50.5277C94.3481 50.5277 94.4318 50.5256 94.4962 50.5213C94.5606 50.5127 94.6122 50.4955 94.6508 50.4697C94.6895 50.4397 94.7153 50.3989 94.7281 50.3473C94.741 50.2915 94.7475 50.2142 94.7475 50.1154V41.4702ZM102.323 49.9995C102.439 49.9995 102.545 49.9844 102.639 49.9544C102.733 49.92 102.817 49.8835 102.89 49.8449C102.968 49.8062 103.03 49.7718 103.077 49.7418C103.129 49.7074 103.167 49.6902 103.193 49.6902C103.232 49.6902 103.257 49.6967 103.27 49.7096C103.287 49.7225 103.307 49.7461 103.328 49.7804L103.554 50.1283C103.575 50.1627 103.586 50.1927 103.586 50.2185C103.586 50.2486 103.577 50.2722 103.56 50.2894C103.543 50.3065 103.526 50.3216 103.509 50.3345C103.367 50.4332 103.193 50.5406 102.987 50.6566C102.781 50.7682 102.54 50.8713 102.265 50.9658C101.995 51.0603 101.688 51.1376 101.344 51.1977C101.001 51.2621 100.623 51.2943 100.21 51.2943C99.8882 51.2943 99.5661 51.2686 99.244 51.217C98.9219 51.1655 98.6127 51.0839 98.3164 50.9722C98.0243 50.8606 97.7516 50.7145 97.4982 50.5342C97.2448 50.3538 97.0237 50.1326 96.8347 49.8706C96.65 49.6086 96.504 49.3059 96.3966 48.9623C96.2893 48.6144 96.2356 48.2172 96.2356 47.7705C96.2356 47.3324 96.2893 46.9416 96.3966 46.5981C96.504 46.2502 96.65 45.9453 96.8347 45.6833C97.0237 45.4213 97.2448 45.2001 97.4982 45.0197C97.7516 44.8351 98.0243 44.6869 98.3164 44.5752C98.6127 44.4593 98.9219 44.3755 99.244 44.324C99.5661 44.2725 99.8882 44.2467 100.21 44.2467C100.747 44.2467 101.245 44.3068 101.705 44.4271C102.169 44.5473 102.57 44.7449 102.91 45.0197C103.249 45.2946 103.515 45.6554 103.708 46.102C103.902 46.5487 103.998 47.0962 103.998 47.7447V48.1055C103.998 48.1828 103.979 48.2429 103.94 48.2859C103.902 48.3288 103.837 48.3503 103.747 48.3503H101.08C101.114 48.6681 101.174 48.9344 101.26 49.1491C101.351 49.3596 101.452 49.5292 101.563 49.658C101.679 49.7826 101.804 49.8706 101.937 49.9222C102.07 49.9737 102.199 49.9995 102.323 49.9995ZM103.083 47.5579C103.083 47.2143 103.056 46.9309 103 46.7076C102.948 46.4799 102.877 46.2996 102.787 46.1664C102.697 46.029 102.59 45.9324 102.465 45.8765C102.345 45.8207 102.218 45.7928 102.085 45.7928C101.986 45.7928 101.879 45.8121 101.763 45.8508C101.647 45.8894 101.537 45.971 101.434 46.0956C101.336 46.2201 101.25 46.3983 101.177 46.6303C101.108 46.8622 101.067 47.1714 101.054 47.5579H103.083ZM101.898 50.3602C101.761 50.3302 101.61 50.27 101.447 50.1798C101.284 50.0854 101.132 49.9415 100.99 49.7482C100.848 49.555 100.73 49.3016 100.636 48.9881C100.541 48.6745 100.494 48.2816 100.494 47.8092C100.494 47.3754 100.535 47.0082 100.616 46.7076C100.702 46.4069 100.812 46.16 100.945 45.9667C101.078 45.7735 101.228 45.6296 101.396 45.5351C101.563 45.4363 101.731 45.3741 101.898 45.3483C101.64 45.3569 101.394 45.4084 101.157 45.5029C100.925 45.5931 100.719 45.737 100.539 45.9345C100.363 46.1321 100.223 46.3855 100.12 46.6947C100.017 47.0039 99.9655 47.3754 99.9655 47.8092C99.9655 48.273 100.026 48.6681 100.146 48.9945C100.266 49.3166 100.419 49.5807 100.603 49.7869C100.792 49.9887 101.001 50.1347 101.228 50.2249C101.456 50.3151 101.679 50.3602 101.898 50.3602Z" fill="url(#paint0_linear_117_120)"/>
<path d="M22.9666 59.9306C22.8598 59.9306 22.758 59.9152 22.6614 59.8846C22.566 59.8527 22.4779 59.8118 22.3972 59.7618C22.3177 59.7107 22.2483 59.655 22.1892 59.5947C22.1301 59.5345 22.0852 59.4754 22.0546 59.4175C22.0614 59.4084 22.0744 59.3947 22.0938 59.3765C22.1131 59.3572 22.1352 59.3373 22.1602 59.3169C22.1853 59.2953 22.2097 59.2754 22.2336 59.2572C22.2586 59.2379 22.279 59.2237 22.2949 59.2146C22.3199 59.2498 22.3529 59.2919 22.3938 59.3407C22.4347 59.3896 22.483 59.4379 22.5387 59.4856C22.5955 59.5322 22.6597 59.5714 22.7313 59.6033C22.8041 59.634 22.8836 59.6493 22.97 59.6493C23.0791 59.6493 23.1672 59.6288 23.2342 59.5879C23.3013 59.5459 23.3502 59.4942 23.3809 59.4328C23.4115 59.3703 23.4269 59.3083 23.4269 59.247C23.4269 59.189 23.4115 59.1379 23.3809 59.0935C23.3502 59.0492 23.3081 59.01 23.2547 58.9759C23.2013 58.9407 23.1393 58.9089 23.0689 58.8805C22.9984 58.852 22.924 58.8259 22.8456 58.802C22.7115 58.76 22.5933 58.7123 22.491 58.6588C22.3887 58.6054 22.3086 58.5389 22.2506 58.4594C22.1926 58.3798 22.1637 58.2798 22.1637 58.1593C22.1637 58.0366 22.1972 57.9349 22.2642 57.8542C22.3313 57.7724 22.4205 57.7116 22.5319 57.6718C22.6433 57.6309 22.7637 57.6104 22.8933 57.6104C23.0126 57.6104 23.124 57.6263 23.2274 57.6581C23.332 57.69 23.4229 57.7297 23.5002 57.7775C23.5775 57.8241 23.6349 57.8718 23.6724 57.9207C23.6621 57.9366 23.6457 57.9593 23.6229 57.9889C23.6002 58.0184 23.5763 58.0474 23.5513 58.0758C23.5275 58.1042 23.5064 58.1264 23.4883 58.1423C23.4576 58.1082 23.4132 58.0707 23.3553 58.0298C23.2985 57.9877 23.2297 57.9519 23.149 57.9224C23.0694 57.8917 22.978 57.8764 22.8745 57.8764C22.7609 57.8764 22.67 57.9036 22.6018 57.9582C22.5336 58.0116 22.4995 58.0838 22.4995 58.1747C22.4995 58.2236 22.5114 58.2656 22.5353 58.3008C22.5592 58.3361 22.5904 58.3662 22.6291 58.3912C22.6677 58.4151 22.7103 58.4361 22.7569 58.4543C22.8035 58.4724 22.8501 58.4878 22.8967 58.5003C23.0092 58.5344 23.1172 58.5702 23.2206 58.6077C23.3252 58.6452 23.4184 58.6901 23.5002 58.7424C23.5831 58.7946 23.6485 58.8594 23.6962 58.9367C23.744 59.0129 23.7678 59.1066 23.7678 59.218C23.7678 59.3112 23.7496 59.4004 23.7133 59.4856C23.6769 59.5709 23.6241 59.647 23.5547 59.7141C23.4865 59.7811 23.403 59.834 23.3041 59.8726C23.2053 59.9113 23.0927 59.9306 22.9666 59.9306ZM24.0957 60.6585C24.1139 60.4869 24.1298 60.3045 24.1435 60.1113C24.1582 59.9192 24.1707 59.7254 24.181 59.53C24.1923 59.3345 24.2009 59.147 24.2065 58.9674C24.2134 58.7878 24.2185 58.6242 24.2219 58.4764C24.2253 58.3275 24.227 58.2042 24.227 58.1065C24.2725 58.0929 24.3259 58.0832 24.3872 58.0775C24.4486 58.0707 24.5066 58.0673 24.5611 58.0673C24.5623 58.0968 24.5628 58.1383 24.5628 58.1917C24.564 58.244 24.5645 58.2906 24.5645 58.3315C24.593 58.2997 24.6356 58.2639 24.6924 58.2241C24.7504 58.1832 24.8208 58.1474 24.9038 58.1167C24.9879 58.086 25.0805 58.0707 25.1817 58.0707C25.4056 58.0707 25.576 58.1423 25.6931 58.2855C25.8113 58.4287 25.8704 58.6276 25.8704 58.8822C25.8704 59.0606 25.8397 59.2163 25.7783 59.3493C25.7181 59.4811 25.6311 59.5834 25.5175 59.6561C25.4038 59.7289 25.2669 59.7652 25.1067 59.7652C25.0328 59.7652 24.9549 59.7544 24.8731 59.7328C24.7924 59.7112 24.7197 59.6857 24.6549 59.6561C24.5901 59.6254 24.5452 59.597 24.5202 59.5709C24.5202 59.5959 24.5179 59.6413 24.5134 59.7073C24.51 59.7732 24.5054 59.8493 24.4998 59.9357C24.4941 60.0232 24.4878 60.1119 24.481 60.2016C24.4742 60.2914 24.4674 60.3744 24.4605 60.4505C24.4549 60.5267 24.4486 60.5858 24.4418 60.6278C24.4032 60.6346 24.3611 60.6403 24.3156 60.6449C24.2713 60.6494 24.2293 60.6528 24.1895 60.6551C24.1497 60.6574 24.1185 60.6585 24.0957 60.6585ZM25.0606 59.4294C25.1754 59.4294 25.2669 59.4061 25.3351 59.3595C25.4044 59.3129 25.4544 59.2464 25.4851 59.16C25.5158 59.0725 25.5311 58.9685 25.5311 58.8481C25.5311 58.6924 25.4942 58.5719 25.4203 58.4867C25.3465 58.4003 25.2379 58.3571 25.0947 58.3571C25.0072 58.3571 24.9265 58.373 24.8526 58.4048C24.7788 58.4366 24.7168 58.4724 24.6668 58.5122C24.6168 58.552 24.5816 58.585 24.5611 58.6111C24.5611 58.6304 24.56 58.6668 24.5577 58.7202C24.5566 58.7736 24.5549 58.8339 24.5526 58.9009C24.5503 58.968 24.5481 59.0322 24.5458 59.0935C24.5446 59.1538 24.5435 59.2004 24.5424 59.2333C24.5662 59.2538 24.6015 59.2799 24.6481 59.3118C24.6947 59.3424 24.7526 59.3697 24.822 59.3936C24.8913 59.4175 24.9708 59.4294 25.0606 59.4294ZM26.5061 58.3997C26.5402 58.3418 26.5897 58.2889 26.6545 58.2412C26.7204 58.1934 26.7943 58.1554 26.8761 58.127C26.959 58.0985 27.042 58.0843 27.125 58.0843C27.1784 58.0843 27.2324 58.0894 27.2869 58.0997C27.3415 58.1088 27.3841 58.1218 27.4148 58.1389L27.3466 58.4815C27.3193 58.4702 27.2841 58.4582 27.2409 58.4457C27.1988 58.4321 27.1466 58.4253 27.0841 58.4253C27.017 58.4253 26.95 58.4378 26.8829 58.4628C26.817 58.4867 26.7562 58.5196 26.7005 58.5617C26.6448 58.6037 26.5982 58.652 26.5607 58.7066C26.5766 58.7861 26.592 58.8833 26.6067 58.9981C26.6226 59.1129 26.6368 59.2305 26.6493 59.351C26.6618 59.4714 26.6721 59.5817 26.68 59.6817C26.688 59.7806 26.692 59.855 26.692 59.905C26.6431 59.9096 26.5834 59.9124 26.513 59.9135C26.4425 59.9147 26.3777 59.9147 26.3186 59.9135C26.3186 59.8078 26.3164 59.6965 26.3118 59.5794C26.3073 59.4612 26.2999 59.3407 26.2896 59.218C26.2806 59.0941 26.2686 58.9708 26.2538 58.8481C26.2391 58.7253 26.2215 58.6066 26.201 58.4918C26.1817 58.3758 26.1595 58.2662 26.1345 58.1628C26.1652 58.1537 26.201 58.1446 26.2419 58.1355C26.284 58.1264 26.3226 58.1184 26.3578 58.1116C26.3931 58.1048 26.4169 58.1008 26.4294 58.0997C26.4442 58.1383 26.4596 58.1883 26.4755 58.2497C26.4914 58.3111 26.5016 58.3611 26.5061 58.3997ZM29.2018 59.53C29.1791 59.5618 29.1456 59.5987 29.1012 59.6408C29.0569 59.6817 29.0018 59.7215 28.9359 59.7601C28.87 59.7976 28.7932 59.8289 28.7057 59.8539C28.6182 59.8789 28.5193 59.8914 28.4091 59.8914C28.2386 59.8914 28.0892 59.8567 27.9608 59.7874C27.8323 59.7181 27.7329 59.6169 27.6624 59.4839C27.592 59.3498 27.5567 59.1867 27.5567 58.9947C27.5567 58.8106 27.5948 58.6509 27.6709 58.5156C27.7482 58.3804 27.8539 58.2758 27.988 58.202C28.1221 58.1281 28.2761 58.0912 28.45 58.0912C28.6682 58.0912 28.8381 58.1576 28.9597 58.2906C29.0825 58.4236 29.1507 58.602 29.1643 58.8259C29.1666 58.8623 29.1677 58.8975 29.1677 58.9316C29.1677 58.9646 29.166 58.9986 29.1626 59.0339C29.1478 59.0327 29.1171 59.0316 29.0706 59.0305C29.0251 59.0282 28.9717 59.0265 28.9103 59.0254C28.8489 59.0231 28.787 59.0214 28.7245 59.0202C28.6631 59.018 28.6103 59.0168 28.5659 59.0168C28.4512 59.0168 28.3335 59.0225 28.2131 59.0339C28.0926 59.0452 27.9852 59.0583 27.8909 59.0731C27.892 59.1026 27.8948 59.1316 27.8994 59.16C27.9039 59.1884 27.9096 59.2157 27.9164 59.2419C27.9358 59.3112 27.971 59.3714 28.0221 59.4226C28.0733 59.4726 28.1341 59.5112 28.2045 59.5385C28.2761 59.5658 28.3517 59.5794 28.4313 59.5794C28.5154 59.5794 28.5887 59.5669 28.6512 59.5419C28.7137 59.5169 28.7671 59.4862 28.8114 59.4498C28.8569 59.4135 28.8933 59.3788 28.9205 59.3459C28.9489 59.3129 28.9705 59.2885 28.9853 59.2725C28.9921 59.2782 29.0052 59.2907 29.0245 59.3101C29.045 59.3282 29.0666 59.3504 29.0893 59.3765C29.1132 59.4027 29.1353 59.4294 29.1558 59.4567C29.1774 59.4828 29.1927 59.5072 29.2018 59.53ZM27.896 58.8447C27.9778 58.831 28.0738 58.8191 28.1841 58.8089C28.2955 58.7986 28.4216 58.7935 28.5625 58.7935C28.6364 58.7935 28.6989 58.7946 28.7501 58.7969C28.8023 58.7981 28.8387 58.7998 28.8592 58.802C28.8592 58.7645 28.8546 58.7248 28.8455 58.6827C28.833 58.6259 28.8103 58.5708 28.7773 58.5173C28.7444 58.4639 28.6995 58.4196 28.6427 58.3844C28.587 58.348 28.5165 58.3298 28.4313 58.3298C28.3335 58.3298 28.2443 58.3508 28.1636 58.3929C28.0841 58.4338 28.0204 58.4929 27.9727 58.5702C27.925 58.6463 27.8994 58.7378 27.896 58.8447ZM30.2153 59.9459C30.0733 59.9459 29.9443 59.9272 29.8283 59.8897C29.7136 59.851 29.6221 59.7897 29.5539 59.7056C29.4857 59.6203 29.4516 59.5072 29.4516 59.3663C29.4516 59.2311 29.4897 59.1191 29.5658 59.0305C29.642 58.9418 29.7448 58.8765 29.8744 58.8344C30.0051 58.7912 30.1511 58.7696 30.3125 58.7696C30.3875 58.7696 30.4608 58.7753 30.5324 58.7867C30.604 58.7969 30.6659 58.8094 30.7182 58.8242C30.7705 58.8378 30.8057 58.8486 30.8239 58.8566C30.8205 58.8191 30.8137 58.781 30.8035 58.7424C30.7944 58.7026 30.7802 58.6679 30.7608 58.6384C30.7177 58.5622 30.6546 58.4997 30.5716 58.4509C30.4898 58.4008 30.3869 58.3758 30.2631 58.3758C30.1324 58.3758 30.0215 58.4043 29.9306 58.4611C29.8397 58.5168 29.7715 58.5833 29.7261 58.6605L29.4499 58.4781C29.4999 58.4043 29.5658 58.3389 29.6476 58.2821C29.7295 58.2253 29.8238 58.1804 29.9306 58.1474C30.0375 58.1144 30.1522 58.098 30.275 58.098C30.4659 58.098 30.6239 58.1343 30.7489 58.2071C30.8739 58.2798 30.9654 58.3758 31.0234 58.4952C31.0529 58.5554 31.0762 58.6213 31.0933 58.6929C31.1103 58.7645 31.1205 58.8532 31.124 58.9589C31.1262 59.0702 31.1285 59.1651 31.1308 59.2436C31.1342 59.322 31.1376 59.3896 31.141 59.4464C31.1467 59.5203 31.1581 59.568 31.1751 59.5896C31.1921 59.6112 31.2166 59.622 31.2484 59.622C31.2848 59.622 31.3155 59.6067 31.3405 59.576C31.3655 59.5442 31.3797 59.4998 31.3831 59.443L31.5467 59.6237C31.5399 59.7192 31.5064 59.7919 31.4462 59.8419C31.3859 59.8919 31.3155 59.9169 31.2348 59.9169C31.1711 59.9169 31.1149 59.905 31.066 59.8811C31.0183 59.8561 30.9802 59.8243 30.9518 59.7857C30.9234 59.747 30.9069 59.7073 30.9023 59.6663C30.8796 59.7084 30.8353 59.751 30.7694 59.7942C30.7046 59.8374 30.6245 59.8738 30.529 59.9033C30.4347 59.9317 30.3301 59.9459 30.2153 59.9459ZM30.2767 59.6783C30.3506 59.6783 30.4227 59.6669 30.4932 59.6442C30.5637 59.6215 30.6284 59.5913 30.6875 59.5538C30.7478 59.5163 30.7972 59.4748 30.8359 59.4294C30.8347 59.3589 30.8347 59.2964 30.8359 59.2419C30.837 59.1862 30.8387 59.135 30.841 59.0884C30.808 59.0771 30.7449 59.0623 30.6517 59.0441C30.5585 59.0248 30.4534 59.0151 30.3364 59.0151C30.2352 59.0151 30.1432 59.0288 30.0602 59.056C29.9784 59.0822 29.913 59.1203 29.8641 59.1703C29.8164 59.2203 29.7925 59.2805 29.7925 59.351C29.7925 59.4362 29.813 59.5027 29.8539 59.5504C29.896 59.597 29.9534 59.63 30.0261 59.6493C30.0988 59.6686 30.1824 59.6783 30.2767 59.6783ZM32.9769 59.905C32.9769 59.8857 32.9763 59.8567 32.9752 59.8181C32.9741 59.7783 32.9735 59.7397 32.9735 59.7021C32.9735 59.6635 32.9735 59.6351 32.9735 59.6169C32.9655 59.6305 32.9479 59.6527 32.9206 59.6834C32.8934 59.7141 32.8547 59.7465 32.8047 59.7806C32.7558 59.8147 32.6939 59.8436 32.6189 59.8675C32.5439 59.8914 32.4547 59.9033 32.3512 59.9033C32.199 59.9033 32.0688 59.8703 31.9609 59.8044C31.8529 59.7374 31.7705 59.6442 31.7137 59.5249C31.658 59.4055 31.6301 59.2674 31.6301 59.1106C31.6301 58.964 31.6585 58.8276 31.7154 58.7015C31.7722 58.5742 31.8574 58.4713 31.9711 58.3929C32.0847 58.3145 32.2268 58.2753 32.3973 58.2753C32.4996 58.2753 32.5905 58.2866 32.67 58.3094C32.7507 58.3321 32.8178 58.3594 32.8712 58.3912C32.9258 58.4219 32.9644 58.4492 32.9871 58.473C32.9883 58.423 32.9911 58.3611 32.9956 58.2872C33.0013 58.2133 33.007 58.1349 33.0127 58.0519C33.0184 57.969 33.0241 57.8889 33.0297 57.8116C33.0354 57.7332 33.0405 57.6644 33.0451 57.6053C33.0508 57.5462 33.0547 57.5047 33.057 57.4808C33.1025 57.4808 33.1525 57.4831 33.207 57.4877C33.2627 57.4922 33.3105 57.4985 33.3502 57.5064C33.3298 57.7724 33.3139 58.0372 33.3025 58.3008C33.2923 58.5634 33.2855 58.8287 33.282 59.097C33.2786 59.364 33.2769 59.6362 33.2769 59.9135C33.2599 59.9135 33.2309 59.913 33.19 59.9118C33.1502 59.9118 33.1099 59.9113 33.0689 59.9101C33.028 59.9079 32.9974 59.9061 32.9769 59.905ZM32.4331 59.5896C32.5115 59.5896 32.5814 59.5783 32.6428 59.5555C32.7041 59.5317 32.7564 59.5033 32.7996 59.4703C32.8428 59.4362 32.878 59.4027 32.9053 59.3697C32.9337 59.3356 32.9536 59.3083 32.965 59.2879C32.965 59.2618 32.965 59.2237 32.965 59.1737C32.9661 59.1225 32.9667 59.0691 32.9667 59.0134C32.9678 58.9566 32.9684 58.9038 32.9684 58.8549C32.9695 58.806 32.9706 58.7696 32.9718 58.7458C32.9456 58.7219 32.9064 58.6958 32.8542 58.6674C32.803 58.6389 32.7428 58.6145 32.6734 58.5941C32.6041 58.5736 32.5297 58.5634 32.4501 58.5634C32.2876 58.5634 32.1632 58.6111 32.0768 58.7066C31.9915 58.8009 31.9489 58.9293 31.9489 59.0918C31.9489 59.2555 31.9904 59.3794 32.0734 59.4635C32.1575 59.5476 32.2774 59.5896 32.4331 59.5896ZM34.1946 59.9118C34.1787 59.913 34.1537 59.9147 34.1196 59.9169C34.0855 59.9192 34.0509 59.9204 34.0156 59.9204C33.9838 59.9204 33.9531 59.9192 33.9236 59.9169C33.894 59.9147 33.8662 59.9118 33.84 59.9084C33.8446 59.8789 33.8503 59.8181 33.8571 59.726C33.8639 59.6328 33.8707 59.5226 33.8775 59.3953C33.8844 59.268 33.8906 59.1367 33.8963 59.0015C33.902 58.8662 33.9065 58.7401 33.9099 58.623C33.9133 58.5048 33.915 58.4111 33.915 58.3418C33.9275 58.3406 33.9474 58.3395 33.9747 58.3383C34.0031 58.3372 34.0338 58.3361 34.0668 58.3349C34.0997 58.3327 34.131 58.331 34.1605 58.3298C34.1901 58.3287 34.2122 58.3281 34.227 58.3281C34.2316 58.3588 34.2344 58.406 34.2355 58.4696C34.2378 58.5321 34.2389 58.6031 34.2389 58.6827C34.2389 58.7884 34.2378 58.9038 34.2355 59.0288C34.2344 59.1538 34.2316 59.2765 34.227 59.397C34.2225 59.5175 34.2174 59.6237 34.2117 59.7158C34.2071 59.8078 34.2014 59.8732 34.1946 59.9118ZM34.0906 58.0622C34.0133 58.0622 33.952 58.0389 33.9065 57.9923C33.8611 57.9457 33.8383 57.8871 33.8383 57.8167C33.8383 57.7633 33.8497 57.7189 33.8724 57.6837C33.8952 57.6473 33.9247 57.6201 33.9611 57.6019C33.9986 57.5826 34.0389 57.5729 34.0821 57.5729C34.1514 57.5729 34.2071 57.5973 34.2492 57.6462C34.2924 57.6951 34.314 57.7559 34.314 57.8286C34.314 57.8923 34.2935 57.9474 34.2526 57.994C34.2128 58.0394 34.1588 58.0622 34.0906 58.0622ZM35.1967 59.9323C35.1751 59.9323 35.149 59.9323 35.1183 59.9323C35.0876 59.9334 35.0569 59.9334 35.0262 59.9323C34.9978 59.9312 34.9654 59.9294 34.9291 59.9272C34.8927 59.926 34.866 59.9243 34.8489 59.9221C34.8603 59.8277 34.87 59.7249 34.8779 59.6135C34.887 59.501 34.8944 59.3748 34.9001 59.235C34.9058 59.0941 34.9103 58.9344 34.9137 58.756C34.9171 58.5764 34.9188 58.3724 34.9188 58.144C34.9461 58.1395 34.9785 58.136 35.016 58.1338C35.0546 58.1304 35.0938 58.1287 35.1336 58.1287C35.1586 58.1287 35.1836 58.1292 35.2086 58.1304C35.2348 58.1315 35.2575 58.1338 35.2768 58.1372C35.278 58.1497 35.2785 58.1724 35.2785 58.2054C35.2797 58.2383 35.2797 58.2747 35.2785 58.3145C35.2785 58.3543 35.2785 58.3895 35.2785 58.4202C35.3206 58.3736 35.3802 58.3258 35.4575 58.277C35.5348 58.2281 35.6212 58.1872 35.7166 58.1542C35.8121 58.1201 35.9081 58.1031 36.0048 58.1031C36.1775 58.1031 36.3088 58.1377 36.3986 58.2071C36.4883 58.2753 36.5491 58.3764 36.581 58.5105C36.6139 58.6446 36.6304 58.8111 36.6304 59.01C36.6304 59.0873 36.6281 59.1748 36.6236 59.2725C36.6202 59.3703 36.6139 59.4737 36.6048 59.5828C36.5969 59.6919 36.5861 59.8027 36.5724 59.9152C36.5565 59.9175 36.5321 59.9192 36.4991 59.9204C36.4673 59.9226 36.4332 59.9238 36.3968 59.9238C36.3605 59.9238 36.3258 59.9232 36.2929 59.9221C36.2599 59.9209 36.2338 59.9186 36.2144 59.9152C36.2292 59.8186 36.2428 59.7181 36.2554 59.6135C36.2679 59.5078 36.2781 59.4032 36.286 59.2998C36.294 59.1953 36.298 59.097 36.298 59.0049C36.298 58.8867 36.2889 58.7833 36.2707 58.6946C36.2536 58.606 36.219 58.5372 36.1667 58.4884C36.1156 58.4395 36.04 58.4151 35.94 58.4151C35.8365 58.4151 35.7417 58.4321 35.6553 58.4662C35.5689 58.5003 35.4933 58.5406 35.4285 58.5872C35.3649 58.6338 35.3132 58.6753 35.2734 58.7117C35.2689 58.9038 35.262 59.0799 35.253 59.2402C35.2439 59.4004 35.2342 59.5396 35.224 59.6578C35.2137 59.776 35.2047 59.8675 35.1967 59.9323ZM37.996 59.5163C37.7858 59.5163 37.6187 59.4822 37.4948 59.414C37.3721 59.3459 37.2835 59.2578 37.2289 59.1498C37.1755 59.0407 37.1488 58.9271 37.1488 58.8089C37.1488 58.66 37.1846 58.5338 37.2562 58.4304C37.3289 58.327 37.4267 58.248 37.5494 58.1934C37.6721 58.1377 37.8091 58.1099 37.9602 58.1099C38.2148 58.1099 38.4092 58.1713 38.5433 58.294C38.6785 58.4156 38.7461 58.5816 38.7461 58.7918C38.7461 58.9464 38.7132 59.0776 38.6473 59.1856C38.5825 59.2924 38.4938 59.3743 38.3813 59.4311C38.2688 59.4879 38.1404 59.5163 37.996 59.5163ZM37.9091 60.7608C37.7386 60.7608 37.5852 60.7449 37.4488 60.7131C37.3136 60.6824 37.2062 60.6278 37.1266 60.5494C37.0482 60.471 37.009 60.3613 37.009 60.2204C37.009 60.1295 37.0363 60.0459 37.0908 59.9698C37.1465 59.8936 37.2249 59.8323 37.3261 59.7857C37.4272 59.7379 37.5477 59.7118 37.6875 59.7073C37.7591 59.705 37.8364 59.7033 37.9193 59.7021C38.0034 59.701 38.0887 59.7004 38.175 59.7004C38.3557 59.7004 38.5046 59.7379 38.6217 59.813C38.7399 59.8868 38.799 60.0039 38.799 60.1641C38.799 60.3062 38.762 60.421 38.6882 60.5085C38.6154 60.596 38.512 60.6596 38.3779 60.6994C38.2449 60.7403 38.0887 60.7608 37.9091 60.7608ZM37.933 60.5358C38.0307 60.5358 38.1199 60.5255 38.2006 60.5051C38.2824 60.4858 38.3478 60.4522 38.3967 60.4045C38.4455 60.3579 38.47 60.2943 38.47 60.2136C38.47 60.1431 38.4501 60.0891 38.4103 60.0516C38.3705 60.0141 38.3216 59.9885 38.2637 59.9749C38.2057 59.9613 38.1489 59.9544 38.0932 59.9544C38.0489 59.9544 37.9994 59.9544 37.9449 59.9544C37.8915 59.9544 37.8409 59.9544 37.7932 59.9544C37.7454 59.9544 37.7085 59.9544 37.6824 59.9544C37.6346 59.9544 37.5852 59.9624 37.5341 59.9783C37.484 59.9942 37.442 60.0221 37.4079 60.0618C37.3749 60.1028 37.3585 60.1602 37.3585 60.234C37.3585 60.3124 37.3846 60.3733 37.4369 60.4164C37.4892 60.4608 37.5585 60.4914 37.6449 60.5085C37.7324 60.5267 37.8284 60.5358 37.933 60.5358ZM37.5306 59.847C37.4011 59.8243 37.3068 59.7834 37.2477 59.7243C37.1886 59.6652 37.159 59.6021 37.159 59.5351C37.159 59.4885 37.1704 59.4459 37.1931 59.4072C37.217 59.3686 37.2465 59.3362 37.2817 59.3101C37.3181 59.2839 37.3568 59.2669 37.3977 59.2589L37.6022 59.3799C37.5454 59.3981 37.5045 59.4214 37.4795 59.4498C37.4556 59.4783 37.4437 59.5078 37.4437 59.5385C37.4437 59.5805 37.4659 59.6197 37.5102 59.6561C37.5545 59.6913 37.6136 59.709 37.6875 59.709L37.5306 59.847ZM37.9585 59.247C38.0699 59.247 38.1603 59.2277 38.2296 59.189C38.2989 59.1492 38.3501 59.0947 38.383 59.0254C38.4171 58.9549 38.4342 58.8753 38.4342 58.7867C38.4342 58.7071 38.4148 58.6372 38.3762 58.577C38.3387 58.5156 38.2864 58.4673 38.2194 58.4321C38.1523 58.3957 38.075 58.3776 37.9875 58.3776C37.8477 58.3776 37.7307 58.4099 37.6363 58.4747C37.5431 58.5384 37.4965 58.6463 37.4965 58.7986C37.4965 58.935 37.5392 59.0441 37.6244 59.1259C37.7096 59.2066 37.821 59.247 37.9585 59.247ZM38.562 58.4815L38.3728 58.3247C38.391 58.2804 38.4177 58.2338 38.4529 58.1849C38.4893 58.136 38.5285 58.09 38.5705 58.0468C38.6126 58.0036 38.6518 57.9701 38.6882 57.9462C38.6995 57.961 38.716 57.9838 38.7376 58.0144C38.7603 58.044 38.7836 58.0735 38.8075 58.1031C38.8314 58.1326 38.8501 58.1559 38.8638 58.173C38.8456 58.1843 38.8217 58.202 38.7922 58.2258C38.7626 58.2497 38.7325 58.277 38.7018 58.3077C38.6711 58.3383 38.6427 58.369 38.6166 58.3997C38.5916 58.4304 38.5734 58.4577 38.562 58.4815ZM40.9004 60.0482C40.7947 60.0482 40.6896 60.0334 40.5851 60.0039C40.4805 59.9743 40.385 59.9351 40.2987 59.8863C40.2134 59.8363 40.1452 59.7811 40.0941 59.7209C40.102 59.705 40.1134 59.6834 40.1282 59.6561C40.143 59.6288 40.16 59.6004 40.1793 59.5709C40.1986 59.5402 40.218 59.5123 40.2373 59.4873C40.2566 59.4612 40.2737 59.4413 40.2884 59.4277C40.3373 59.4822 40.3958 59.5351 40.464 59.5862C40.5322 59.6362 40.6055 59.6771 40.6839 59.709C40.7624 59.7397 40.8408 59.755 40.9192 59.755C40.9942 59.755 41.0618 59.7442 41.1221 59.7226C41.1834 59.6999 41.2317 59.6675 41.267 59.6254C41.3033 59.5834 41.3215 59.5328 41.3215 59.4737C41.3215 59.4055 41.2999 59.347 41.2567 59.2981C41.2135 59.2481 41.1556 59.2044 41.0828 59.1669C41.0101 59.1282 40.93 59.093 40.8425 59.0612C40.7368 59.0225 40.6402 58.9805 40.5527 58.935C40.4663 58.8884 40.397 58.8304 40.3447 58.7611C40.2935 58.6918 40.268 58.6037 40.268 58.4969C40.268 58.3878 40.2987 58.2969 40.36 58.2241C40.4225 58.1514 40.5044 58.0963 40.6055 58.0588C40.7078 58.0213 40.818 58.0025 40.9362 58.0025C41.0681 58.0025 41.1891 58.0196 41.2994 58.0536C41.4107 58.0866 41.496 58.1252 41.5551 58.1696C41.5505 58.1889 41.5409 58.2145 41.5261 58.2463C41.5113 58.277 41.4943 58.3082 41.4749 58.34C41.4556 58.3719 41.4357 58.4008 41.4153 58.427C41.3607 58.3906 41.2942 58.356 41.2158 58.323C41.1374 58.29 41.0522 58.2736 40.9601 58.2736C40.8987 58.2736 40.8396 58.2809 40.7828 58.2957C40.726 58.3094 40.6794 58.3327 40.643 58.3656C40.6067 58.3986 40.5885 58.4435 40.5885 58.5003C40.5885 58.5492 40.6061 58.5929 40.6413 58.6316C40.6777 58.6702 40.7266 58.7049 40.7879 58.7355C40.8493 58.7651 40.9186 58.7935 40.9959 58.8208C41.0891 58.8526 41.1755 58.8884 41.255 58.9282C41.3346 58.9668 41.4033 59.0117 41.4613 59.0629C41.5204 59.1129 41.5664 59.1708 41.5994 59.2367C41.6323 59.3015 41.6488 59.3748 41.6488 59.4567C41.6488 59.5874 41.6153 59.6965 41.5482 59.784C41.4812 59.8715 41.3914 59.9374 41.2789 59.9817C41.1664 60.026 41.0402 60.0482 40.9004 60.0482ZM42.0498 59.9255C42.0407 59.8436 42.0327 59.7459 42.0259 59.6323C42.0191 59.5186 42.0128 59.3976 42.0071 59.2691C42.0015 59.1407 41.9969 59.0117 41.9935 58.8822C41.9901 58.7526 41.9873 58.6299 41.985 58.5139C41.9827 58.3969 41.9816 58.2946 41.9816 58.2071C41.9986 58.2014 42.0213 58.1957 42.0498 58.19C42.0782 58.1843 42.1083 58.1792 42.1401 58.1747C42.1719 58.1701 42.2021 58.1667 42.2305 58.1645C42.2589 58.161 42.2822 58.1593 42.3004 58.1593C42.3015 58.1775 42.3026 58.2042 42.3038 58.2395C42.3049 58.2736 42.306 58.3099 42.3072 58.3486C42.3095 58.3872 42.3106 58.4224 42.3106 58.4543C42.3117 58.485 42.3123 58.5065 42.3123 58.519C42.3214 58.4952 42.339 58.4628 42.3651 58.4219C42.3924 58.381 42.4294 58.3395 42.476 58.2974C42.5237 58.2554 42.5828 58.2201 42.6532 58.1917C42.7237 58.1633 42.8067 58.1491 42.9021 58.1491C42.9885 58.1491 43.0613 58.1673 43.1203 58.2037C43.1806 58.24 43.2295 58.2878 43.267 58.3469C43.3056 58.4048 43.3346 58.4679 43.3539 58.5361C43.3653 58.5759 43.3732 58.6156 43.3778 58.6554C43.3834 58.6952 43.3874 58.7338 43.3897 58.7713C43.409 58.6634 43.4454 58.5605 43.4988 58.4628C43.5534 58.3639 43.6267 58.2832 43.7187 58.2207C43.8119 58.1582 43.9256 58.127 44.0597 58.127C44.1835 58.127 44.2853 58.1525 44.3648 58.2037C44.4444 58.2548 44.5063 58.327 44.5506 58.4202C44.595 58.5134 44.6256 58.6242 44.6427 58.7526C44.6609 58.8799 44.67 59.0208 44.67 59.1754C44.67 59.2572 44.6677 59.3441 44.6632 59.4362C44.6597 59.5283 44.6546 59.618 44.6478 59.7056C44.6421 59.7919 44.6359 59.8692 44.6291 59.9374C44.6018 59.9408 44.5739 59.9431 44.5455 59.9442C44.5171 59.9465 44.4887 59.9476 44.4603 59.9476C44.433 59.9476 44.404 59.9465 44.3733 59.9442C44.3438 59.9431 44.3137 59.9414 44.283 59.9391C44.3057 59.7709 44.3233 59.6152 44.3358 59.472C44.3495 59.3288 44.3563 59.2009 44.3563 59.0884C44.3563 58.8736 44.3307 58.7105 44.2796 58.5992C44.2284 58.4878 44.1443 58.4321 44.0273 58.4321C43.9216 58.4321 43.8363 58.4634 43.7716 58.5259C43.7079 58.5884 43.6591 58.6725 43.625 58.7782C43.592 58.8839 43.5693 59.0032 43.5568 59.1362C43.5443 59.2691 43.5369 59.4061 43.5346 59.547C43.5335 59.6072 43.5323 59.6698 43.5312 59.7345C43.5301 59.7982 43.5295 59.8618 43.5295 59.9255C43.5124 59.9266 43.4897 59.9277 43.4613 59.9289C43.434 59.9312 43.4062 59.9323 43.3778 59.9323C43.3448 59.9323 43.3118 59.9312 43.2789 59.9289C43.2459 59.9277 43.2204 59.9255 43.2022 59.9221C43.2033 59.8459 43.2039 59.7726 43.2039 59.7021C43.205 59.6317 43.2056 59.5612 43.2056 59.4908C43.2056 59.3578 43.201 59.2294 43.1919 59.1055C43.184 58.9816 43.1675 58.8702 43.1425 58.7713C43.1175 58.6713 43.0794 58.5918 43.0283 58.5327C42.9771 58.4736 42.909 58.444 42.8237 58.444C42.7601 58.444 42.6993 58.4605 42.6413 58.4935C42.5845 58.5264 42.5333 58.5679 42.4879 58.6179C42.4424 58.6668 42.4061 58.7185 42.3788 58.7731C42.3515 58.8265 42.3356 58.8736 42.331 58.9145C42.3379 59.0964 42.3458 59.2595 42.3549 59.4038C42.3651 59.5481 42.3742 59.6663 42.3822 59.7584C42.3913 59.8493 42.3975 59.9073 42.4009 59.9323C42.3907 59.9334 42.3725 59.9346 42.3464 59.9357C42.3203 59.9368 42.297 59.9374 42.2765 59.9374C42.2333 59.9374 42.1901 59.9363 42.1469 59.934C42.1049 59.9317 42.0725 59.9289 42.0498 59.9255ZM45.5452 59.9118C45.5293 59.913 45.5043 59.9147 45.4702 59.9169C45.4361 59.9192 45.4015 59.9204 45.3662 59.9204C45.3344 59.9204 45.3037 59.9192 45.2742 59.9169C45.2446 59.9147 45.2168 59.9118 45.1906 59.9084C45.1952 59.8789 45.2009 59.8181 45.2077 59.726C45.2145 59.6328 45.2213 59.5226 45.2281 59.3953C45.235 59.268 45.2412 59.1367 45.2469 59.0015C45.2526 58.8662 45.2571 58.7401 45.2605 58.623C45.2639 58.5048 45.2657 58.4111 45.2657 58.3418C45.2782 58.3406 45.298 58.3395 45.3253 58.3383C45.3537 58.3372 45.3844 58.3361 45.4174 58.3349C45.4503 58.3327 45.4816 58.331 45.5111 58.3298C45.5407 58.3287 45.5628 58.3281 45.5776 58.3281C45.5822 58.3588 45.585 58.406 45.5861 58.4696C45.5884 58.5321 45.5896 58.6031 45.5896 58.6827C45.5896 58.7884 45.5884 58.9038 45.5861 59.0288C45.585 59.1538 45.5822 59.2765 45.5776 59.397C45.5731 59.5175 45.568 59.6237 45.5623 59.7158C45.5577 59.8078 45.552 59.8732 45.5452 59.9118ZM45.4412 58.0622C45.364 58.0622 45.3026 58.0389 45.2571 57.9923C45.2117 57.9457 45.1889 57.8871 45.1889 57.8167C45.1889 57.7633 45.2003 57.7189 45.223 57.6837C45.2458 57.6473 45.2753 57.6201 45.3117 57.6019C45.3492 57.5826 45.3895 57.5729 45.4327 57.5729C45.502 57.5729 45.5577 57.5973 45.5998 57.6462C45.643 57.6951 45.6646 57.7559 45.6646 57.8286C45.6646 57.8923 45.6441 57.9474 45.6032 57.994C45.5634 58.0394 45.5094 58.0622 45.4412 58.0622ZM47.0034 59.801C46.9773 59.8385 46.9307 59.876 46.8636 59.9135C46.7966 59.9522 46.7165 59.9715 46.6233 59.9715C46.4926 59.9715 46.3954 59.9374 46.3318 59.8692C46.2681 59.7999 46.2261 59.7044 46.2056 59.5828C46.1863 59.4612 46.1766 59.3226 46.1766 59.1669C46.1766 59.0668 46.1778 58.9577 46.18 58.8395C46.1823 58.7213 46.1852 58.5992 46.1886 58.473C46.1931 58.3469 46.1977 58.223 46.2022 58.1014C46.2067 57.9786 46.2113 57.8639 46.2158 57.757C46.2204 57.6491 46.2249 57.5547 46.2295 57.474C46.2818 57.4695 46.3295 57.4672 46.3727 57.4672C46.4022 57.4672 46.4318 57.4683 46.4613 57.4706C46.4909 57.4729 46.521 57.4757 46.5517 57.4791C46.5471 57.561 46.542 57.6581 46.5363 57.7707C46.5307 57.882 46.5244 58.0008 46.5176 58.127C46.5119 58.2531 46.5068 58.3793 46.5022 58.5054C46.4977 58.6316 46.4937 58.7492 46.4903 58.8583C46.4869 58.9674 46.4852 59.0606 46.4852 59.1379C46.4852 59.2242 46.4897 59.3078 46.4988 59.3885C46.5079 59.468 46.5272 59.5334 46.5568 59.5845C46.5863 59.6357 46.6312 59.6612 46.6915 59.6612C46.7381 59.6612 46.7739 59.6499 46.7989 59.6271C46.8239 59.6044 46.8455 59.5754 46.8636 59.5402C46.8705 59.5493 46.8807 59.5663 46.8943 59.5913C46.9091 59.6152 46.9239 59.6425 46.9387 59.6732C46.9546 59.7027 46.9682 59.7294 46.9796 59.7533C46.9921 59.7772 47 59.7931 47.0034 59.801ZM48.8165 59.53C48.7938 59.5618 48.7602 59.5987 48.7159 59.6408C48.6716 59.6817 48.6165 59.7215 48.5506 59.7601C48.4846 59.7976 48.4079 59.8289 48.3204 59.8539C48.2329 59.8789 48.134 59.8914 48.0238 59.8914C47.8533 59.8914 47.7039 59.8567 47.5754 59.7874C47.447 59.7181 47.3476 59.6169 47.2771 59.4839C47.2066 59.3498 47.1714 59.1867 47.1714 58.9947C47.1714 58.8106 47.2095 58.6509 47.2856 58.5156C47.3629 58.3804 47.4686 58.2758 47.6027 58.202C47.7368 58.1281 47.8908 58.0912 48.0647 58.0912C48.2829 58.0912 48.4528 58.1576 48.5744 58.2906C48.6972 58.4236 48.7654 58.602 48.779 58.8259C48.7813 58.8623 48.7824 58.8975 48.7824 58.9316C48.7824 58.9646 48.7807 58.9986 48.7773 59.0339C48.7625 59.0327 48.7318 59.0316 48.6852 59.0305C48.6398 59.0282 48.5864 59.0265 48.525 59.0254C48.4636 59.0231 48.4017 59.0214 48.3392 59.0202C48.2778 59.018 48.2249 59.0168 48.1806 59.0168C48.0658 59.0168 47.9482 59.0225 47.8277 59.0339C47.7073 59.0452 47.5999 59.0583 47.5055 59.0731C47.5067 59.1026 47.5095 59.1316 47.5141 59.16C47.5186 59.1884 47.5243 59.2157 47.5311 59.2419C47.5504 59.3112 47.5857 59.3714 47.6368 59.4226C47.6879 59.4726 47.7487 59.5112 47.8192 59.5385C47.8908 59.5658 47.9664 59.5794 48.0459 59.5794C48.13 59.5794 48.2034 59.5669 48.2659 59.5419C48.3284 59.5169 48.3818 59.4862 48.4261 59.4498C48.4716 59.4135 48.5079 59.3788 48.5352 59.3459C48.5636 59.3129 48.5852 59.2885 48.6 59.2725C48.6068 59.2782 48.6199 59.2907 48.6392 59.3101C48.6597 59.3282 48.6813 59.3504 48.704 59.3765C48.7278 59.4027 48.75 59.4294 48.7705 59.4567C48.7921 59.4828 48.8074 59.5072 48.8165 59.53ZM47.5107 58.8447C47.5925 58.831 47.6885 58.8191 47.7988 58.8089C47.9101 58.7986 48.0363 58.7935 48.1772 58.7935C48.2511 58.7935 48.3136 58.7946 48.3647 58.7969C48.417 58.7981 48.4534 58.7998 48.4738 58.802C48.4738 58.7645 48.4693 58.7248 48.4602 58.6827C48.4477 58.6259 48.425 58.5708 48.392 58.5173C48.3591 58.4639 48.3142 58.4196 48.2573 58.3844C48.2016 58.348 48.1312 58.3298 48.0459 58.3298C47.9482 58.3298 47.859 58.3508 47.7783 58.3929C47.6987 58.4338 47.6351 58.4929 47.5874 58.5702C47.5396 58.6463 47.5141 58.7378 47.5107 58.8447ZM49.8704 60.0482C49.7647 60.0482 49.6596 60.0334 49.555 60.0039C49.4504 59.9743 49.355 59.9351 49.2686 59.8863C49.1834 59.8363 49.1152 59.7811 49.064 59.7209C49.072 59.705 49.0834 59.6834 49.0981 59.6561C49.1129 59.6288 49.1299 59.6004 49.1493 59.5709C49.1686 59.5402 49.1879 59.5123 49.2072 59.4873C49.2266 59.4612 49.2436 59.4413 49.2584 59.4277C49.3072 59.4822 49.3658 59.5351 49.434 59.5862C49.5022 59.6362 49.5755 59.6771 49.6539 59.709C49.7323 59.7397 49.8107 59.755 49.8891 59.755C49.9641 59.755 50.0318 59.7442 50.092 59.7226C50.1534 59.6999 50.2017 59.6675 50.2369 59.6254C50.2733 59.5834 50.2915 59.5328 50.2915 59.4737C50.2915 59.4055 50.2699 59.347 50.2267 59.2981C50.1835 59.2481 50.1255 59.2044 50.0528 59.1669C49.9801 59.1282 49.8999 59.093 49.8124 59.0612C49.7067 59.0225 49.6101 58.9805 49.5226 58.935C49.4362 58.8884 49.3669 58.8304 49.3146 58.7611C49.2635 58.6918 49.2379 58.6037 49.2379 58.4969C49.2379 58.3878 49.2686 58.2969 49.33 58.2241C49.3925 58.1514 49.4743 58.0963 49.5755 58.0588C49.6777 58.0213 49.788 58.0025 49.9062 58.0025C50.038 58.0025 50.1591 58.0196 50.2693 58.0536C50.3807 58.0866 50.4659 58.1252 50.525 58.1696C50.5205 58.1889 50.5108 58.2145 50.496 58.2463C50.4813 58.277 50.4642 58.3082 50.4449 58.34C50.4256 58.3719 50.4057 58.4008 50.3852 58.427C50.3307 58.3906 50.2642 58.356 50.1858 58.323C50.1073 58.29 50.0221 58.2736 49.93 58.2736C49.8687 58.2736 49.8096 58.2809 49.7528 58.2957C49.6959 58.3094 49.6493 58.3327 49.613 58.3656C49.5766 58.3986 49.5584 58.4435 49.5584 58.5003C49.5584 58.5492 49.576 58.5929 49.6113 58.6316C49.6476 58.6702 49.6965 58.7049 49.7579 58.7355C49.8192 58.7651 49.8886 58.7935 49.9658 58.8208C50.059 58.8526 50.1454 58.8884 50.225 58.9282C50.3045 58.9668 50.3733 59.0117 50.4312 59.0629C50.4903 59.1129 50.5364 59.1708 50.5693 59.2367C50.6023 59.3015 50.6188 59.3748 50.6188 59.4567C50.6188 59.5874 50.5852 59.6965 50.5182 59.784C50.4511 59.8715 50.3613 59.9374 50.2488 59.9817C50.1363 60.026 50.0102 60.0482 49.8704 60.0482ZM52.7845 59.963C52.4868 59.963 52.2669 59.88 52.1248 59.7141C51.9827 59.5481 51.9117 59.3095 51.9117 58.9981C51.9117 58.8015 51.9481 58.6355 52.0208 58.5003C52.0947 58.365 52.197 58.2622 52.3277 58.1917C52.4595 58.1213 52.6129 58.086 52.7879 58.086C52.9732 58.086 53.126 58.1292 53.2465 58.2156C53.367 58.3008 53.4562 58.4202 53.5142 58.5736C53.5733 58.7259 53.6028 58.9032 53.6028 59.1055C53.6028 59.2794 53.5704 59.4305 53.5056 59.5589C53.4409 59.6862 53.3471 59.7857 53.2244 59.8573C53.1027 59.9277 52.9561 59.963 52.7845 59.963ZM52.7709 59.6578C52.8629 59.6578 52.9419 59.6408 53.0079 59.6067C53.0738 59.5726 53.1272 59.5271 53.1681 59.4703C53.209 59.4123 53.2391 59.3476 53.2584 59.276C53.2789 59.2044 53.2891 59.1311 53.2891 59.056C53.2891 58.9197 53.2704 58.7981 53.2329 58.6912C53.1954 58.5844 53.1385 58.5009 53.0624 58.4406C52.9863 58.3793 52.8891 58.3486 52.7709 58.3486C52.655 58.3486 52.5578 58.3764 52.4794 58.4321C52.401 58.4878 52.3419 58.5645 52.3021 58.6622C52.2634 58.76 52.2441 58.8719 52.2441 58.9981C52.2441 59.1924 52.289 59.351 52.3788 59.4737C52.4686 59.5965 52.5993 59.6578 52.7709 59.6578ZM54.3186 59.9323C54.297 59.9323 54.2709 59.9323 54.2402 59.9323C54.2095 59.9334 54.1788 59.9334 54.1481 59.9323C54.1197 59.9312 54.0873 59.9294 54.0509 59.9272C54.0146 59.926 53.9879 59.9243 53.9708 59.9221C53.9822 59.8277 53.9918 59.7249 53.9998 59.6135C54.0089 59.501 54.0163 59.3748 54.022 59.235C54.0276 59.0941 54.0322 58.9344 54.0356 58.756C54.039 58.5764 54.0407 58.3724 54.0407 58.144C54.068 58.1395 54.1004 58.136 54.1379 58.1338C54.1765 58.1304 54.2157 58.1287 54.2555 58.1287C54.2805 58.1287 54.3055 58.1292 54.3305 58.1304C54.3567 58.1315 54.3794 58.1338 54.3987 58.1372C54.3999 58.1497 54.4004 58.1724 54.4004 58.2054C54.4016 58.2383 54.4016 58.2747 54.4004 58.3145C54.4004 58.3543 54.4004 58.3895 54.4004 58.4202C54.4425 58.3736 54.5021 58.3258 54.5794 58.277C54.6567 58.2281 54.7431 58.1872 54.8385 58.1542C54.934 58.1201 55.03 58.1031 55.1266 58.1031C55.2994 58.1031 55.4307 58.1377 55.5204 58.2071C55.6102 58.2753 55.671 58.3764 55.7029 58.5105C55.7358 58.6446 55.7523 58.8111 55.7523 59.01C55.7523 59.0873 55.75 59.1748 55.7455 59.2725C55.7421 59.3703 55.7358 59.4737 55.7267 59.5828C55.7188 59.6919 55.708 59.8027 55.6943 59.9152C55.6784 59.9175 55.654 59.9192 55.621 59.9204C55.5892 59.9226 55.5551 59.9238 55.5187 59.9238C55.4824 59.9238 55.4477 59.9232 55.4148 59.9221C55.3818 59.9209 55.3557 59.9186 55.3363 59.9152C55.3511 59.8186 55.3647 59.7181 55.3772 59.6135C55.3897 59.5078 55.4 59.4032 55.4079 59.2998C55.4159 59.1953 55.4199 59.097 55.4199 59.0049C55.4199 58.8867 55.4108 58.7833 55.3926 58.6946C55.3755 58.606 55.3409 58.5372 55.2886 58.4884C55.2375 58.4395 55.1619 58.4151 55.0619 58.4151C54.9584 58.4151 54.8635 58.4321 54.7772 58.4662C54.6908 58.5003 54.6152 58.5406 54.5504 58.5872C54.4868 58.6338 54.4351 58.6753 54.3953 58.7117C54.3908 58.9038 54.3839 59.0799 54.3749 59.2402C54.3658 59.4004 54.3561 59.5396 54.3459 59.6578C54.3356 59.776 54.3265 59.8675 54.3186 59.9323ZM57.8397 59.53C57.817 59.5618 57.7835 59.5987 57.7391 59.6408C57.6948 59.6817 57.6397 59.7215 57.5738 59.7601C57.5079 59.7976 57.4311 59.8289 57.3436 59.8539C57.2561 59.8789 57.1572 59.8914 57.047 59.8914C56.8765 59.8914 56.7271 59.8567 56.5986 59.7874C56.4702 59.7181 56.3708 59.6169 56.3003 59.4839C56.2299 59.3498 56.1946 59.1867 56.1946 58.9947C56.1946 58.8106 56.2327 58.6509 56.3088 58.5156C56.3861 58.3804 56.4918 58.2758 56.6259 58.202C56.76 58.1281 56.914 58.0912 57.0879 58.0912C57.3061 58.0912 57.476 58.1576 57.5976 58.2906C57.7204 58.4236 57.7886 58.602 57.8022 58.8259C57.8045 58.8623 57.8056 58.8975 57.8056 58.9316C57.8056 58.9646 57.8039 58.9986 57.8005 59.0339C57.7857 59.0327 57.755 59.0316 57.7084 59.0305C57.663 59.0282 57.6096 59.0265 57.5482 59.0254C57.4868 59.0231 57.4249 59.0214 57.3624 59.0202C57.301 59.018 57.2482 59.0168 57.2038 59.0168C57.0891 59.0168 56.9714 59.0225 56.851 59.0339C56.7305 59.0452 56.6231 59.0583 56.5288 59.0731C56.5299 59.1026 56.5327 59.1316 56.5373 59.16C56.5418 59.1884 56.5475 59.2157 56.5543 59.2419C56.5736 59.3112 56.6089 59.3714 56.66 59.4226C56.7112 59.4726 56.772 59.5112 56.8424 59.5385C56.914 59.5658 56.9896 59.5794 57.0692 59.5794C57.1533 59.5794 57.2266 59.5669 57.2891 59.5419C57.3516 59.5169 57.405 59.4862 57.4493 59.4498C57.4948 59.4135 57.5312 59.3788 57.5584 59.3459C57.5868 59.3129 57.6084 59.2885 57.6232 59.2725C57.63 59.2782 57.6431 59.2907 57.6624 59.3101C57.6829 59.3282 57.7045 59.3504 57.7272 59.3765C57.7511 59.4027 57.7732 59.4294 57.7937 59.4567C57.8153 59.4828 57.8306 59.5072 57.8397 59.53ZM56.5339 58.8447C56.6157 58.831 56.7117 58.8191 56.822 58.8089C56.9333 58.7986 57.0595 58.7935 57.2004 58.7935C57.2743 58.7935 57.3368 58.7946 57.388 58.7969C57.4402 58.7981 57.4766 58.7998 57.4971 58.802C57.4971 58.7645 57.4925 58.7248 57.4834 58.6827C57.4709 58.6259 57.4482 58.5708 57.4152 58.5173C57.3823 58.4639 57.3374 58.4196 57.2806 58.3844C57.2249 58.348 57.1544 58.3298 57.0692 58.3298C56.9714 58.3298 56.8822 58.3508 56.8015 58.3929C56.722 58.4338 56.6583 58.4929 56.6106 58.5702C56.5628 58.6463 56.5373 58.7378 56.5339 58.8447ZM60.4561 59.905C60.4561 59.8857 60.4555 59.8567 60.4544 59.8181C60.4532 59.7783 60.4527 59.7397 60.4527 59.7021C60.4527 59.6635 60.4527 59.6351 60.4527 59.6169C60.4447 59.6305 60.4271 59.6527 60.3998 59.6834C60.3726 59.7141 60.3339 59.7465 60.2839 59.7806C60.235 59.8147 60.1731 59.8436 60.0981 59.8675C60.0231 59.8914 59.9339 59.9033 59.8304 59.9033C59.6781 59.9033 59.548 59.8703 59.4401 59.8044C59.3321 59.7374 59.2497 59.6442 59.1929 59.5249C59.1372 59.4055 59.1093 59.2674 59.1093 59.1106C59.1093 58.964 59.1377 58.8276 59.1946 58.7015C59.2514 58.5742 59.3366 58.4713 59.4503 58.3929C59.5639 58.3145 59.706 58.2753 59.8765 58.2753C59.9788 58.2753 60.0697 58.2866 60.1492 58.3094C60.2299 58.3321 60.297 58.3594 60.3504 58.3912C60.4049 58.4219 60.4436 58.4492 60.4663 58.473C60.4675 58.423 60.4703 58.3611 60.4748 58.2872C60.4805 58.2133 60.4862 58.1349 60.4919 58.0519C60.4976 57.969 60.5033 57.8889 60.5089 57.8116C60.5146 57.7332 60.5197 57.6644 60.5243 57.6053C60.53 57.5462 60.5339 57.5047 60.5362 57.4808C60.5817 57.4808 60.6317 57.4831 60.6862 57.4877C60.7419 57.4922 60.7896 57.4985 60.8294 57.5064C60.809 57.7724 60.7931 58.0372 60.7817 58.3008C60.7715 58.5634 60.7646 58.8287 60.7612 59.097C60.7578 59.364 60.7561 59.6362 60.7561 59.9135C60.7391 59.9135 60.7101 59.913 60.6692 59.9118C60.6294 59.9118 60.5891 59.9113 60.5481 59.9101C60.5072 59.9079 60.4765 59.9061 60.4561 59.905ZM59.9123 59.5896C59.9907 59.5896 60.0606 59.5783 60.122 59.5555C60.1833 59.5317 60.2356 59.5033 60.2788 59.4703C60.322 59.4362 60.3572 59.4027 60.3845 59.3697C60.4129 59.3356 60.4328 59.3083 60.4442 59.2879C60.4442 59.2618 60.4442 59.2237 60.4442 59.1737C60.4453 59.1225 60.4459 59.0691 60.4459 59.0134C60.447 58.9566 60.4476 58.9038 60.4476 58.8549C60.4487 58.806 60.4498 58.7696 60.451 58.7458C60.4248 58.7219 60.3856 58.6958 60.3333 58.6674C60.2822 58.6389 60.222 58.6145 60.1526 58.5941C60.0833 58.5736 60.0089 58.5634 59.9293 58.5634C59.7668 58.5634 59.6423 58.6111 59.556 58.7066C59.4707 58.8009 59.4281 58.9293 59.4281 59.0918C59.4281 59.2555 59.4696 59.3794 59.5526 59.4635C59.6367 59.5476 59.7566 59.5896 59.9123 59.5896ZM61.6738 59.9118C61.6579 59.913 61.6329 59.9147 61.5988 59.9169C61.5647 59.9192 61.53 59.9204 61.4948 59.9204C61.463 59.9204 61.4323 59.9192 61.4028 59.9169C61.3732 59.9147 61.3454 59.9118 61.3192 59.9084C61.3238 59.8789 61.3295 59.8181 61.3363 59.726C61.3431 59.6328 61.3499 59.5226 61.3567 59.3953C61.3635 59.268 61.3698 59.1367 61.3755 59.0015C61.3812 58.8662 61.3857 58.7401 61.3891 58.623C61.3925 58.5048 61.3942 58.4111 61.3942 58.3418C61.4067 58.3406 61.4266 58.3395 61.4539 58.3383C61.4823 58.3372 61.513 58.3361 61.546 58.3349C61.5789 58.3327 61.6102 58.331 61.6397 58.3298C61.6693 58.3287 61.6914 58.3281 61.7062 58.3281C61.7108 58.3588 61.7136 58.406 61.7147 58.4696C61.717 58.5321 61.7181 58.6031 61.7181 58.6827C61.7181 58.7884 61.717 58.9038 61.7147 59.0288C61.7136 59.1538 61.7108 59.2765 61.7062 59.397C61.7017 59.5175 61.6965 59.6237 61.6909 59.7158C61.6863 59.8078 61.6806 59.8732 61.6738 59.9118ZM61.5698 58.0622C61.4925 58.0622 61.4312 58.0389 61.3857 57.9923C61.3403 57.9457 61.3175 57.8871 61.3175 57.8167C61.3175 57.7633 61.3289 57.7189 61.3516 57.6837C61.3743 57.6473 61.4039 57.6201 61.4403 57.6019C61.4778 57.5826 61.5181 57.5729 61.5613 57.5729C61.6306 57.5729 61.6863 57.5973 61.7284 57.6462C61.7716 57.6951 61.7931 57.7559 61.7931 57.8286C61.7931 57.8923 61.7727 57.9474 61.7318 57.994C61.692 58.0394 61.638 58.0622 61.5698 58.0622ZM62.9257 60.0482C62.82 60.0482 62.7149 60.0334 62.6104 60.0039C62.5058 59.9743 62.4103 59.9351 62.324 59.8863C62.2387 59.8363 62.1705 59.7811 62.1194 59.7209C62.1273 59.705 62.1387 59.6834 62.1535 59.6561C62.1683 59.6288 62.1853 59.6004 62.2046 59.5709C62.224 59.5402 62.2433 59.5123 62.2626 59.4873C62.2819 59.4612 62.299 59.4413 62.3137 59.4277C62.3626 59.4822 62.4211 59.5351 62.4893 59.5862C62.5575 59.6362 62.6308 59.6771 62.7092 59.709C62.7877 59.7397 62.8661 59.755 62.9445 59.755C63.0195 59.755 63.0871 59.7442 63.1474 59.7226C63.2087 59.6999 63.257 59.6675 63.2923 59.6254C63.3286 59.5834 63.3468 59.5328 63.3468 59.4737C63.3468 59.4055 63.3252 59.347 63.282 59.2981C63.2388 59.2481 63.1809 59.2044 63.1082 59.1669C63.0354 59.1282 62.9553 59.093 62.8678 59.0612C62.7621 59.0225 62.6655 58.9805 62.578 58.935C62.4916 58.8884 62.4223 58.8304 62.37 58.7611C62.3188 58.6918 62.2933 58.6037 62.2933 58.4969C62.2933 58.3878 62.324 58.2969 62.3853 58.2241C62.4478 58.1514 62.5297 58.0963 62.6308 58.0588C62.7331 58.0213 62.8433 58.0025 62.9615 58.0025C63.0934 58.0025 63.2144 58.0196 63.3247 58.0536C63.436 58.0866 63.5213 58.1252 63.5804 58.1696C63.5758 58.1889 63.5662 58.2145 63.5514 58.2463C63.5366 58.277 63.5196 58.3082 63.5002 58.34C63.4809 58.3719 63.461 58.4008 63.4406 58.427C63.386 58.3906 63.3195 58.356 63.2411 58.323C63.1627 58.29 63.0775 58.2736 62.9854 58.2736C62.924 58.2736 62.8649 58.2809 62.8081 58.2957C62.7513 58.3094 62.7047 58.3327 62.6683 58.3656C62.632 58.3986 62.6138 58.4435 62.6138 58.5003C62.6138 58.5492 62.6314 58.5929 62.6666 58.6316C62.703 58.6702 62.7519 58.7049 62.8132 58.7355C62.8746 58.7651 62.9439 58.7935 63.0212 58.8208C63.1144 58.8526 63.2008 58.8884 63.2803 58.9282C63.3599 58.9668 63.4286 59.0117 63.4866 59.0629C63.5457 59.1129 63.5917 59.1708 63.6247 59.2367C63.6577 59.3015 63.6741 59.3748 63.6741 59.4567C63.6741 59.5874 63.6406 59.6965 63.5735 59.784C63.5065 59.8715 63.4167 59.9374 63.3042 59.9817C63.1917 60.026 63.0655 60.0482 62.9257 60.0482ZM64.3154 59.9442C64.2961 59.9465 64.2705 59.9482 64.2387 59.9493C64.208 59.9505 64.1762 59.951 64.1433 59.951C64.108 59.951 64.0734 59.9493 64.0393 59.9459C64.0052 59.9437 63.9807 59.9402 63.966 59.9357C63.9762 59.8561 63.9847 59.755 63.9915 59.6323C63.9995 59.5095 64.0057 59.3731 64.0103 59.2231C64.0148 59.0731 64.0171 58.9174 64.0171 58.756C64.0171 58.6094 64.0148 58.4617 64.0103 58.3128C64.0069 58.1628 64.0018 58.0184 63.9949 57.8798C63.9881 57.7411 63.9813 57.6144 63.9745 57.4996C63.9824 57.4962 63.9995 57.4922 64.0256 57.4877C64.0529 57.482 64.083 57.4769 64.116 57.4723C64.1501 57.4666 64.1825 57.4621 64.2132 57.4587C64.2438 57.4541 64.2671 57.4513 64.283 57.4502C64.3001 57.5354 64.3143 57.6422 64.3257 57.7707C64.3382 57.8979 64.3478 58.0372 64.3546 58.1883C64.3615 58.3383 64.366 58.4906 64.3683 58.6452C64.4069 58.5963 64.4581 58.5503 64.5217 58.5071C64.5865 58.4628 64.6581 58.427 64.7365 58.3997C64.8149 58.3713 64.8951 58.3571 64.9769 58.3571C65.1019 58.3571 65.2002 58.3855 65.2718 58.4423C65.3445 58.4992 65.3957 58.5787 65.4252 58.681C65.4559 58.7833 65.4713 58.9043 65.4713 59.0441C65.4713 59.1293 65.4679 59.2231 65.461 59.3254C65.4554 59.4277 65.4468 59.5305 65.4355 59.634C65.4252 59.7362 65.4144 59.8317 65.4031 59.9204C65.3769 59.9238 65.3491 59.926 65.3195 59.9272C65.2911 59.9294 65.2621 59.9306 65.2326 59.9306C65.2019 59.9306 65.1712 59.9289 65.1405 59.9255C65.111 59.9232 65.0849 59.9198 65.0621 59.9152C65.0701 59.8607 65.0786 59.7993 65.0877 59.7311C65.0968 59.6618 65.1053 59.5908 65.1133 59.518C65.1212 59.4442 65.1275 59.372 65.132 59.3015C65.1377 59.2311 65.1405 59.1657 65.1405 59.1055C65.1405 59.0157 65.1326 58.9373 65.1167 58.8702C65.1019 58.8032 65.0746 58.7515 65.0348 58.7151C64.9951 58.6776 64.9377 58.6588 64.8627 58.6588C64.8002 58.6588 64.7411 58.6719 64.6854 58.698C64.6297 58.7242 64.5791 58.756 64.5336 58.7935C64.4893 58.831 64.4524 58.8668 64.4228 58.9009C64.3944 58.9339 64.3757 58.9577 64.3666 58.9725C64.3666 59.0975 64.3637 59.2248 64.3581 59.3544C64.3535 59.4839 64.3473 59.6016 64.3393 59.7073C64.3313 59.8118 64.3234 59.8908 64.3154 59.9442ZM67.6334 59.9459C67.4913 59.9459 67.3623 59.9272 67.2464 59.8897C67.1316 59.851 67.0401 59.7897 66.9719 59.7056C66.9037 59.6203 66.8696 59.5072 66.8696 59.3663C66.8696 59.2311 66.9077 59.1191 66.9839 59.0305C67.06 58.9418 67.1629 58.8765 67.2924 58.8344C67.4231 58.7912 67.5692 58.7696 67.7305 58.7696C67.8056 58.7696 67.8789 58.7753 67.9505 58.7867C68.0221 58.7969 68.084 58.8094 68.1363 58.8242C68.1886 58.8378 68.2238 58.8486 68.242 58.8566C68.2386 58.8191 68.2317 58.781 68.2215 58.7424C68.2124 58.7026 68.1982 58.6679 68.1789 58.6384C68.1357 58.5622 68.0726 58.4997 67.9897 58.4509C67.9078 58.4008 67.805 58.3758 67.6811 58.3758C67.5504 58.3758 67.4396 58.4043 67.3487 58.4611C67.2578 58.5168 67.1896 58.5833 67.1441 58.6605L66.8679 58.4781C66.9179 58.4043 66.9839 58.3389 67.0657 58.2821C67.1475 58.2253 67.2418 58.1804 67.3487 58.1474C67.4555 58.1144 67.5703 58.098 67.693 58.098C67.884 58.098 68.0419 58.1343 68.167 58.2071C68.292 58.2798 68.3835 58.3758 68.4414 58.4952C68.471 58.5554 68.4943 58.6213 68.5113 58.6929C68.5284 58.7645 68.5386 58.8532 68.542 58.9589C68.5443 59.0702 68.5466 59.1651 68.5488 59.2436C68.5522 59.322 68.5556 59.3896 68.5591 59.4464C68.5647 59.5203 68.5761 59.568 68.5931 59.5896C68.6102 59.6112 68.6346 59.622 68.6665 59.622C68.7028 59.622 68.7335 59.6067 68.7585 59.576C68.7835 59.5442 68.7977 59.4998 68.8011 59.443L68.9648 59.6237C68.958 59.7192 68.9244 59.7919 68.8642 59.8419C68.804 59.8919 68.7335 59.9169 68.6528 59.9169C68.5892 59.9169 68.5329 59.905 68.484 59.8811C68.4363 59.8561 68.3982 59.8243 68.3698 59.7857C68.3414 59.747 68.3249 59.7073 68.3204 59.6663C68.2977 59.7084 68.2533 59.751 68.1874 59.7942C68.1226 59.8374 68.0425 59.8738 67.947 59.9033C67.8527 59.9317 67.7482 59.9459 67.6334 59.9459ZM67.6947 59.6783C67.7686 59.6783 67.8408 59.6669 67.9112 59.6442C67.9817 59.6215 68.0465 59.5913 68.1056 59.5538C68.1658 59.5163 68.2153 59.4748 68.2539 59.4294C68.2528 59.3589 68.2528 59.2964 68.2539 59.2419C68.255 59.1862 68.2567 59.135 68.259 59.0884C68.2261 59.0771 68.163 59.0623 68.0698 59.0441C67.9766 59.0248 67.8715 59.0151 67.7544 59.0151C67.6533 59.0151 67.5612 59.0288 67.4782 59.056C67.3964 59.0822 67.3311 59.1203 67.2822 59.1703C67.2345 59.2203 67.2106 59.2805 67.2106 59.351C67.2106 59.4362 67.231 59.5027 67.272 59.5504C67.314 59.597 67.3714 59.63 67.4441 59.6493C67.5169 59.6686 67.6004 59.6783 67.6947 59.6783ZM70.2038 59.593C70.1867 59.6476 70.1606 59.705 70.1254 59.7652C70.0901 59.8243 70.0413 59.8743 69.9787 59.9152C69.9162 59.9573 69.8355 59.9783 69.7367 59.9783C69.6094 59.9783 69.5082 59.9505 69.4332 59.8948C69.3593 59.8391 69.3065 59.7658 69.2747 59.6749C69.2429 59.5839 69.2269 59.4851 69.2269 59.3782C69.2269 59.3226 69.2275 59.2566 69.2287 59.1805C69.2309 59.1043 69.2332 59.0254 69.2355 58.9435C69.2377 58.8617 69.24 58.7827 69.2423 58.7066C69.2457 58.6293 69.2485 58.5617 69.2508 58.5037C69.2531 58.4446 69.2548 58.4008 69.2559 58.3724C69.1445 58.3838 69.0479 58.3963 68.9661 58.4099C68.8854 58.4224 68.8337 58.4321 68.811 58.4389C68.8042 58.4026 68.7985 58.3645 68.7939 58.3247C68.7905 58.2838 68.7877 58.2469 68.7854 58.2139C68.7843 58.1809 68.7837 58.1588 68.7837 58.1474C68.8474 58.1383 68.9212 58.1287 69.0053 58.1184C69.0906 58.1082 69.1747 58.1002 69.2576 58.0946C69.2588 58.0502 69.2593 57.9957 69.2593 57.9309C69.2593 57.865 69.2593 57.803 69.2593 57.7451C69.2582 57.6962 69.2559 57.6491 69.2525 57.6036C69.2491 57.557 69.2463 57.5184 69.244 57.4877L69.5645 57.4689C69.5668 57.486 69.569 57.5269 69.5713 57.5917C69.5747 57.6553 69.5764 57.7326 69.5764 57.8235C69.5764 57.8576 69.5764 57.8991 69.5764 57.948C69.5764 57.9957 69.5764 58.0383 69.5764 58.0758C69.6105 58.0735 69.6526 58.0713 69.7026 58.069C69.7526 58.0667 69.7929 58.0656 69.8236 58.0656C69.877 58.0644 69.9282 58.0639 69.977 58.0639C70.0259 58.0639 70.068 58.0644 70.1032 58.0656C70.1384 58.0667 70.16 58.0679 70.168 58.069C70.1737 58.0997 70.1771 58.1423 70.1782 58.1968C70.1805 58.2514 70.1816 58.2969 70.1816 58.3332C70.1702 58.3321 70.131 58.3315 70.064 58.3315C69.9981 58.3304 69.9327 58.3304 69.8679 58.3315C69.8213 58.3327 69.7702 58.3349 69.7145 58.3383C69.6588 58.3406 69.6111 58.3429 69.5713 58.3452C69.5702 58.3747 69.5679 58.4185 69.5645 58.4764C69.5622 58.5344 69.5599 58.5997 69.5577 58.6725C69.5554 58.7441 69.5531 58.8174 69.5508 58.8924C69.5486 58.9663 69.5469 59.0356 69.5457 59.1004C69.5446 59.164 69.544 59.2157 69.544 59.2555C69.544 59.3271 69.548 59.3953 69.556 59.4601C69.5651 59.5249 69.5855 59.5783 69.6173 59.6203C69.6503 59.6612 69.702 59.6817 69.7725 59.6817C69.8202 59.6817 69.8588 59.6646 69.8884 59.6305C69.9179 59.5965 69.9407 59.5572 69.9566 59.5129C69.9736 59.4686 69.9861 59.4317 69.9941 59.4021C70.0043 59.4135 70.0191 59.4288 70.0384 59.4481C70.0589 59.4663 70.0805 59.4856 70.1032 59.5061C70.1271 59.5266 70.1481 59.5447 70.1663 59.5607C70.1856 59.5766 70.1981 59.5874 70.2038 59.593ZM72.3314 59.9459C72.1894 59.9459 72.0604 59.9272 71.9445 59.8897C71.8297 59.851 71.7382 59.7897 71.67 59.7056C71.6018 59.6203 71.5677 59.5072 71.5677 59.3663C71.5677 59.2311 71.6058 59.1191 71.6819 59.0305C71.7581 58.9418 71.8609 58.8765 71.9905 58.8344C72.1212 58.7912 72.2672 58.7696 72.4286 58.7696C72.5036 58.7696 72.5769 58.7753 72.6485 58.7867C72.7201 58.7969 72.7821 58.8094 72.8343 58.8242C72.8866 58.8378 72.9219 58.8486 72.94 58.8566C72.9366 58.8191 72.9298 58.781 72.9196 58.7424C72.9105 58.7026 72.8963 58.6679 72.877 58.6384C72.8338 58.5622 72.7707 58.4997 72.6877 58.4509C72.6059 58.4008 72.503 58.3758 72.3792 58.3758C72.2485 58.3758 72.1377 58.4043 72.0467 58.4611C71.9558 58.5168 71.8876 58.5833 71.8422 58.6605L71.566 58.4781C71.616 58.4043 71.6819 58.3389 71.7638 58.2821C71.8456 58.2253 71.9399 58.1804 72.0467 58.1474C72.1536 58.1144 72.2684 58.098 72.3911 58.098C72.582 58.098 72.74 58.1343 72.865 58.2071C72.99 58.2798 73.0815 58.3758 73.1395 58.4952C73.169 58.5554 73.1923 58.6213 73.2094 58.6929C73.2264 58.7645 73.2367 58.8532 73.2401 58.9589C73.2423 59.0702 73.2446 59.1651 73.2469 59.2436C73.2503 59.322 73.2537 59.3896 73.2571 59.4464C73.2628 59.5203 73.2742 59.568 73.2912 59.5896C73.3083 59.6112 73.3327 59.622 73.3645 59.622C73.4009 59.622 73.4316 59.6067 73.4566 59.576C73.4816 59.5442 73.4958 59.4998 73.4992 59.443L73.6629 59.6237C73.656 59.7192 73.6225 59.7919 73.5623 59.8419C73.502 59.8919 73.4316 59.9169 73.3509 59.9169C73.2872 59.9169 73.231 59.905 73.1821 59.8811C73.1344 59.8561 73.0963 59.8243 73.0679 59.7857C73.0395 59.747 73.023 59.7073 73.0185 59.6663C72.9957 59.7084 72.9514 59.751 72.8855 59.7942C72.8207 59.8374 72.7406 59.8738 72.6451 59.9033C72.5508 59.9317 72.4462 59.9459 72.3314 59.9459ZM72.3928 59.6783C72.4667 59.6783 72.5388 59.6669 72.6093 59.6442C72.6798 59.6215 72.7446 59.5913 72.8037 59.5538C72.8639 59.5163 72.9133 59.4748 72.952 59.4294C72.9508 59.3589 72.9508 59.2964 72.952 59.2419C72.9531 59.1862 72.9548 59.135 72.9571 59.0884C72.9241 59.0771 72.861 59.0623 72.7679 59.0441C72.6747 59.0248 72.5695 59.0151 72.4525 59.0151C72.3513 59.0151 72.2593 59.0288 72.1763 59.056C72.0945 59.0822 72.0291 59.1203 71.9803 59.1703C71.9325 59.2203 71.9087 59.2805 71.9087 59.351C71.9087 59.4362 71.9291 59.5027 71.97 59.5504C72.0121 59.597 72.0695 59.63 72.1422 59.6493C72.2149 59.6686 72.2985 59.6783 72.3928 59.6783ZM76.1538 59.593C76.1367 59.6476 76.1106 59.705 76.0753 59.7652C76.0401 59.8243 75.9912 59.8743 75.9287 59.9152C75.8662 59.9573 75.7855 59.9783 75.6867 59.9783C75.5594 59.9783 75.4582 59.9505 75.3832 59.8948C75.3093 59.8391 75.2565 59.7658 75.2247 59.6749C75.1929 59.5839 75.1769 59.4851 75.1769 59.3782C75.1769 59.3226 75.1775 59.2566 75.1786 59.1805C75.1809 59.1043 75.1832 59.0254 75.1855 58.9435C75.1877 58.8617 75.19 58.7827 75.1923 58.7066C75.1957 58.6293 75.1985 58.5617 75.2008 58.5037C75.2031 58.4446 75.2048 58.4008 75.2059 58.3724C75.0945 58.3838 74.9979 58.3963 74.9161 58.4099C74.8354 58.4224 74.7837 58.4321 74.761 58.4389C74.7542 58.4026 74.7485 58.3645 74.7439 58.3247C74.7405 58.2838 74.7377 58.2469 74.7354 58.2139C74.7343 58.1809 74.7337 58.1588 74.7337 58.1474C74.7974 58.1383 74.8712 58.1287 74.9553 58.1184C75.0406 58.1082 75.1247 58.1002 75.2076 58.0946C75.2088 58.0502 75.2093 57.9957 75.2093 57.9309C75.2093 57.865 75.2093 57.803 75.2093 57.7451C75.2082 57.6962 75.2059 57.6491 75.2025 57.6036C75.1991 57.557 75.1963 57.5184 75.194 57.4877L75.5145 57.4689C75.5168 57.486 75.519 57.5269 75.5213 57.5917C75.5247 57.6553 75.5264 57.7326 75.5264 57.8235C75.5264 57.8576 75.5264 57.8991 75.5264 57.948C75.5264 57.9957 75.5264 58.0383 75.5264 58.0758C75.5605 58.0735 75.6026 58.0713 75.6526 58.069C75.7026 58.0667 75.7429 58.0656 75.7736 58.0656C75.827 58.0644 75.8782 58.0639 75.927 58.0639C75.9759 58.0639 76.018 58.0644 76.0532 58.0656C76.0884 58.0667 76.11 58.0679 76.118 58.069C76.1237 58.0997 76.1271 58.1423 76.1282 58.1968C76.1305 58.2514 76.1316 58.2969 76.1316 58.3332C76.1202 58.3321 76.081 58.3315 76.014 58.3315C75.9481 58.3304 75.8827 58.3304 75.8179 58.3315C75.7713 58.3327 75.7202 58.3349 75.6645 58.3383C75.6088 58.3406 75.5611 58.3429 75.5213 58.3452C75.5202 58.3747 75.5179 58.4185 75.5145 58.4764C75.5122 58.5344 75.5099 58.5997 75.5077 58.6725C75.5054 58.7441 75.5031 58.8174 75.5008 58.8924C75.4986 58.9663 75.4969 59.0356 75.4957 59.1004C75.4946 59.164 75.494 59.2157 75.494 59.2555C75.494 59.3271 75.498 59.3953 75.506 59.4601C75.5151 59.5249 75.5355 59.5783 75.5673 59.6203C75.6003 59.6612 75.652 59.6817 75.7225 59.6817C75.7702 59.6817 75.8088 59.6646 75.8384 59.6305C75.8679 59.5965 75.8907 59.5572 75.9066 59.5129C75.9236 59.4686 75.9361 59.4317 75.9441 59.4021C75.9543 59.4135 75.9691 59.4288 75.9884 59.4481C76.0089 59.4663 76.0305 59.4856 76.0532 59.5061C76.0771 59.5266 76.0981 59.5447 76.1163 59.5607C76.1356 59.5766 76.1481 59.5874 76.1538 59.593ZM76.8801 59.9118C76.8642 59.913 76.8392 59.9147 76.8051 59.9169C76.771 59.9192 76.7363 59.9204 76.7011 59.9204C76.6693 59.9204 76.6386 59.9192 76.609 59.9169C76.5795 59.9147 76.5516 59.9118 76.5255 59.9084C76.5301 59.8789 76.5357 59.8181 76.5426 59.726C76.5494 59.6328 76.5562 59.5226 76.563 59.3953C76.5698 59.268 76.5761 59.1367 76.5818 59.0015C76.5874 58.8662 76.592 58.7401 76.5954 58.623C76.5988 58.5048 76.6005 58.4111 76.6005 58.3418C76.613 58.3406 76.6329 58.3395 76.6602 58.3383C76.6886 58.3372 76.7193 58.3361 76.7522 58.3349C76.7852 58.3327 76.8165 58.331 76.846 58.3298C76.8756 58.3287 76.8977 58.3281 76.9125 58.3281C76.917 58.3588 76.9199 58.406 76.921 58.4696C76.9233 58.5321 76.9244 58.6031 76.9244 58.6827C76.9244 58.7884 76.9233 58.9038 76.921 59.0288C76.9199 59.1538 76.917 59.2765 76.9125 59.397C76.9079 59.5175 76.9028 59.6237 76.8971 59.7158C76.8926 59.8078 76.8869 59.8732 76.8801 59.9118ZM76.7761 58.0622C76.6988 58.0622 76.6375 58.0389 76.592 57.9923C76.5465 57.9457 76.5238 57.8871 76.5238 57.8167C76.5238 57.7633 76.5352 57.7189 76.5579 57.6837C76.5806 57.6473 76.6102 57.6201 76.6465 57.6019C76.6841 57.5826 76.7244 57.5729 76.7676 57.5729C76.8369 57.5729 76.8926 57.5973 76.9347 57.6462C76.9778 57.6951 76.9994 57.7559 76.9994 57.8286C76.9994 57.8923 76.979 57.9474 76.9381 57.994C76.8983 58.0394 76.8443 58.0622 76.7761 58.0622ZM77.6299 59.9255C77.6208 59.8436 77.6128 59.7459 77.606 59.6323C77.5992 59.5186 77.5929 59.3976 77.5873 59.2691C77.5816 59.1407 77.577 59.0117 77.5736 58.8822C77.5702 58.7526 77.5674 58.6299 77.5651 58.5139C77.5628 58.3969 77.5617 58.2946 77.5617 58.2071C77.5787 58.2014 77.6015 58.1957 77.6299 58.19C77.6583 58.1843 77.6884 58.1792 77.7202 58.1747C77.752 58.1701 77.7822 58.1667 77.8106 58.1645C77.839 58.161 77.8623 58.1593 77.8805 58.1593C77.8816 58.1775 77.8827 58.2042 77.8839 58.2395C77.885 58.2736 77.8862 58.3099 77.8873 58.3486C77.8896 58.3872 77.8907 58.4224 77.8907 58.4543C77.8918 58.485 77.8924 58.5065 77.8924 58.519C77.9015 58.4952 77.9191 58.4628 77.9453 58.4219C77.9725 58.381 78.0095 58.3395 78.0561 58.2974C78.1038 58.2554 78.1629 58.2201 78.2334 58.1917C78.3038 58.1633 78.3868 58.1491 78.4823 58.1491C78.5686 58.1491 78.6414 58.1673 78.7005 58.2037C78.7607 58.24 78.8096 58.2878 78.8471 58.3469C78.8857 58.4048 78.9147 58.4679 78.934 58.5361C78.9454 58.5759 78.9533 58.6156 78.9579 58.6554C78.9636 58.6952 78.9675 58.7338 78.9698 58.7713C78.9891 58.6634 79.0255 58.5605 79.0789 58.4628C79.1335 58.3639 79.2068 58.2832 79.2988 58.2207C79.392 58.1582 79.5057 58.127 79.6398 58.127C79.7637 58.127 79.8654 58.1525 79.9449 58.2037C80.0245 58.2548 80.0864 58.327 80.1307 58.4202C80.1751 58.5134 80.2058 58.6242 80.2228 58.7526C80.241 58.8799 80.2501 59.0208 80.2501 59.1754C80.2501 59.2572 80.2478 59.3441 80.2433 59.4362C80.2399 59.5283 80.2347 59.618 80.2279 59.7056C80.2222 59.7919 80.216 59.8692 80.2092 59.9374C80.1819 59.9408 80.154 59.9431 80.1256 59.9442C80.0972 59.9465 80.0688 59.9476 80.0404 59.9476C80.0131 59.9476 79.9841 59.9465 79.9535 59.9442C79.9239 59.9431 79.8938 59.9414 79.8631 59.9391C79.8858 59.7709 79.9034 59.6152 79.9159 59.472C79.9296 59.3288 79.9364 59.2009 79.9364 59.0884C79.9364 58.8736 79.9108 58.7105 79.8597 58.5992C79.8086 58.4878 79.7244 58.4321 79.6074 58.4321C79.5017 58.4321 79.4165 58.4634 79.3517 58.5259C79.288 58.5884 79.2392 58.6725 79.2051 58.7782C79.1721 58.8839 79.1494 59.0032 79.1369 59.1362C79.1244 59.2691 79.117 59.4061 79.1147 59.547C79.1136 59.6072 79.1124 59.6698 79.1113 59.7345C79.1102 59.7982 79.1096 59.8618 79.1096 59.9255C79.0926 59.9266 79.0698 59.9277 79.0414 59.9289C79.0141 59.9312 78.9863 59.9323 78.9579 59.9323C78.9249 59.9323 78.892 59.9312 78.859 59.9289C78.826 59.9277 78.8005 59.9255 78.7823 59.9221C78.7834 59.8459 78.784 59.7726 78.784 59.7021C78.7851 59.6317 78.7857 59.5612 78.7857 59.4908C78.7857 59.3578 78.7812 59.2294 78.7721 59.1055C78.7641 58.9816 78.7476 58.8702 78.7226 58.7713C78.6976 58.6713 78.6595 58.5918 78.6084 58.5327C78.5573 58.4736 78.4891 58.444 78.4038 58.444C78.3402 58.444 78.2794 58.4605 78.2214 58.4935C78.1646 58.5264 78.1135 58.5679 78.068 58.6179C78.0225 58.6668 77.9862 58.7185 77.9589 58.7731C77.9316 58.8265 77.9157 58.8736 77.9112 58.9145C77.918 59.0964 77.9259 59.2595 77.935 59.4038C77.9453 59.5481 77.9543 59.6663 77.9623 59.7584C77.9714 59.8493 77.9776 59.9073 77.9811 59.9323C77.9708 59.9334 77.9526 59.9346 77.9265 59.9357C77.9004 59.9368 77.8771 59.9374 77.8566 59.9374C77.8134 59.9374 77.7702 59.9363 77.727 59.934C77.685 59.9317 77.6526 59.9289 77.6299 59.9255ZM82.3023 59.53C82.2796 59.5618 82.246 59.5987 82.2017 59.6408C82.1574 59.6817 82.1023 59.7215 82.0363 59.7601C81.9704 59.7976 81.8937 59.8289 81.8062 59.8539C81.7187 59.8789 81.6198 59.8914 81.5096 59.8914C81.3391 59.8914 81.1897 59.8567 81.0612 59.7874C80.9328 59.7181 80.8334 59.6169 80.7629 59.4839C80.6924 59.3498 80.6572 59.1867 80.6572 58.9947C80.6572 58.8106 80.6953 58.6509 80.7714 58.5156C80.8487 58.3804 80.9544 58.2758 81.0885 58.202C81.2226 58.1281 81.3766 58.0912 81.5505 58.0912C81.7687 58.0912 81.9386 58.1576 82.0602 58.2906C82.183 58.4236 82.2511 58.602 82.2648 58.8259C82.2671 58.8623 82.2682 58.8975 82.2682 58.9316C82.2682 58.9646 82.2665 58.9986 82.2631 59.0339C82.2483 59.0327 82.2176 59.0316 82.171 59.0305C82.1256 59.0282 82.0721 59.0265 82.0108 59.0254C81.9494 59.0231 81.8875 59.0214 81.825 59.0202C81.7636 59.018 81.7107 59.0168 81.6664 59.0168C81.5516 59.0168 81.434 59.0225 81.3135 59.0339C81.1931 59.0452 81.0857 59.0583 80.9913 59.0731C80.9925 59.1026 80.9953 59.1316 80.9999 59.16C81.0044 59.1884 81.0101 59.2157 81.0169 59.2419C81.0362 59.3112 81.0715 59.3714 81.1226 59.4226C81.1737 59.4726 81.2345 59.5112 81.305 59.5385C81.3766 59.5658 81.4522 59.5794 81.5317 59.5794C81.6158 59.5794 81.6891 59.5669 81.7517 59.5419C81.8142 59.5169 81.8676 59.4862 81.9119 59.4498C81.9574 59.4135 81.9937 59.3788 82.021 59.3459C82.0494 59.3129 82.071 59.2885 82.0858 59.2725C82.0926 59.2782 82.1057 59.2907 82.125 59.3101C82.1455 59.3282 82.167 59.3504 82.1898 59.3765C82.2136 59.4027 82.2358 59.4294 82.2563 59.4567C82.2779 59.4828 82.2932 59.5072 82.3023 59.53ZM80.9964 58.8447C81.0783 58.831 81.1743 58.8191 81.2845 58.8089C81.3959 58.7986 81.5221 58.7935 81.663 58.7935C81.7369 58.7935 81.7994 58.7946 81.8505 58.7969C81.9028 58.7981 81.9392 58.7998 81.9596 58.802C81.9596 58.7645 81.9551 58.7248 81.946 58.6827C81.9335 58.6259 81.9108 58.5708 81.8778 58.5173C81.8448 58.4639 81.8 58.4196 81.7431 58.3844C81.6874 58.348 81.617 58.3298 81.5317 58.3298C81.434 58.3298 81.3448 58.3508 81.2641 58.3929C81.1845 58.4338 81.1209 58.4929 81.0732 58.5702C81.0254 58.6463 80.9999 58.7378 80.9964 58.8447Z" fill="#FB1E26"/>
</g>
<defs>
<linearGradient id="paint0_linear_117_120" x1="0.5" y1="46.5239" x2="110.858" y2="46.5239" gradientUnits="userSpaceOnUse">
<stop stop-color="#FB1E26"/>
<stop offset="1" stop-color="#FFD700"/>
</linearGradient>
<clipPath id="clip0_117_120">
<rect width="103.422" height="60.8202" fill="white" transform="translate(0.789062 0.0899048)"/>
</clipPath>
</defs>
</svg>
